<svg width="1440" height="1038" viewBox="0 0 1440 1038" fill="none" xmlns="http://www.w3.org/2000/svg">
<g opacity="0.15">
<path d="M-194 653L471.974 1037.5" stroke="#BABDC2"/>
<path d="M-52.8378 571.5L613.136 956" stroke="#BABDC2"/>
<path d="M229.486 408.5L895.46 793" stroke="#BABDC2"/>
<path d="M511.811 245.5L1177.78 630" stroke="#BABDC2"/>
<path d="M794.135 82.5L1460.11 467" stroke="#BABDC2"/>
<path d="M88.3243 490L754.298 874.5" stroke="#BABDC2"/>
<path d="M370.649 327L1036.62 711.5" stroke="#BABDC2"/>
<path d="M652.973 164L1318.95 548.5" stroke="#BABDC2"/>
<path d="M935.297 1L1601.27 385.5" stroke="#BABDC2"/>
<path d="M206.97 883.5L1335.4 232" stroke="#BABDC2"/>
<path d="M-60.6321 730L1067.8 78.5" stroke="#BABDC2"/>
<path d="M340.338 960.5L1468.77 309" stroke="#BABDC2"/>
<path d="M473.706 1037.5L1602.14 386" stroke="#BABDC2"/>
<path d="M73.6019 806.5L1202.03 155" stroke="#BABDC2"/>
<path d="M-194 653L934.431 1.50001" stroke="#BABDC2"/>
</g>
</svg>
