<svg width="151" height="33" viewBox="0 0 151 33" fill="none" xmlns="http://www.w3.org/2000/svg">
<path fill-rule="evenodd" clip-rule="evenodd" d="M30.6936 18.2395C32.4744 17.5115 33.7344 15.7811 33.7344 13.7427V12.9419C33.7344 10.9035 32.4744 9.16748 30.6936 8.43948C30.4584 8.34428 30.2008 8.51788 30.2008 8.76988V17.9091C30.2008 18.1667 30.4584 18.3347 30.6936 18.2395ZM27.5016 18.4579C27.3336 16.3859 26.5104 14.5043 25.2336 13.0147C25.088 12.8411 25.1272 12.6059 25.3176 12.4827C27.0536 11.3739 28.14 9.34108 27.8768 7.07868C27.5912 4.61466 25.6256 2.57626 23.1728 2.20666C22.0248 2.03866 20.9272 2.21226 19.9752 2.64906C19.32 2.95146 18.6256 3.09706 17.9312 3.09706C17.2312 3.09706 16.5368 2.94586 15.8872 2.64906C14.9352 2.21226 13.8376 2.03306 12.6896 2.20666C10.2368 2.57066 8.2712 4.61466 7.9856 7.07868C7.7224 9.34668 8.8088 11.3739 10.5448 12.4827C10.7352 12.6059 10.7744 12.8411 10.6288 13.0147C9.3576 14.5043 8.5288 16.3859 8.3608 18.4579C8.344 18.6707 8.5008 18.8499 8.7136 18.8499H17.9312H27.1488C27.356 18.8499 27.5184 18.6651 27.5016 18.4579ZM8.4728 20.9555C9.2792 25.4523 13.1992 28.8739 17.9312 28.8739C22.6632 28.8739 26.5832 25.4579 27.3896 20.9555C27.4288 20.7315 27.2608 20.5299 27.0368 20.5299H17.9312H8.8256C8.6016 20.5299 8.4336 20.7371 8.4728 20.9555ZM5.1744 18.2395C5.4096 18.3347 5.6672 18.1611 5.6672 17.9091V8.76428C5.6672 8.50668 5.4096 8.33868 5.1744 8.43388C3.3936 9.16748 2.1336 10.8979 2.1336 12.9363V13.7427C2.1336 15.7755 3.3936 17.5115 5.1744 18.2395ZM30.0776 6.31708C30.548 6.22748 31.0408 6.27228 31.5 6.45708C34.1544 7.54908 35.8736 10.0915 35.8904 12.9363V13.7371C35.8904 16.5875 34.1768 19.1299 31.5224 20.2163C31.2144 20.3395 30.8896 20.4011 30.5704 20.4011C30.2736 20.4011 29.9824 20.3451 29.708 20.2443C29.596 20.1995 29.4784 20.3003 29.5008 20.4179C29.5568 20.7147 29.5624 21.0227 29.5064 21.3307C28.504 26.9419 23.6432 31.0131 17.9424 31.0131C12.2416 31.0131 7.3808 26.9419 6.3784 21.3307C6.3224 21.0227 6.328 20.7147 6.384 20.4179C6.4064 20.3003 6.2888 20.1995 6.1768 20.2443C5.8968 20.3451 5.6056 20.4011 5.3144 20.4011C4.9952 20.4011 4.676 20.3395 4.368 20.2163C1.7136 19.1243 0 16.5819 0 13.7371V12.9363C0 10.0859 1.7136 7.54348 4.368 6.45708C4.8272 6.26668 5.32 6.22748 5.7904 6.31708C5.88 6.33388 5.964 6.28348 5.9808 6.19388C6.6192 3.04106 9.1672 0.571463 12.3872 0.089865C13.8992 -0.139735 15.4224 0.073065 16.7888 0.700263C17.1528 0.868263 17.5448 0.952263 17.9368 0.952263C18.3288 0.952263 18.7208 0.868263 19.0848 0.700263C20.4512 0.0786651 21.9744 -0.134135 23.4864 0.089865C26.7064 0.571463 29.2544 3.04106 29.8928 6.19388C29.9096 6.28348 29.988 6.33388 30.0776 6.31708ZM12.236 7.53228C12.236 7.01708 12.656 6.59708 13.1712 6.59708H22.6912C23.2064 6.59708 23.6264 7.01708 23.6264 7.53228C23.6264 8.04748 23.2064 8.46748 22.6912 8.46748H13.1712C12.656 8.46748 12.236 8.04748 12.236 7.53228ZM18.6368 12.7179C18.6368 12.1019 19.1352 11.6035 19.7512 11.6035C20.3672 11.6035 20.8656 12.1019 20.8656 12.7179C20.8656 13.3339 20.3672 13.8323 19.7512 13.8323C19.1352 13.8323 18.6368 13.3339 18.6368 12.7179ZM16.1112 11.6035C15.4952 11.6035 14.9968 12.1019 14.9968 12.7179C14.9968 13.3339 15.4952 13.8323 16.1112 13.8323C16.7272 13.8323 17.2256 13.3339 17.2256 12.7179C17.2256 12.1019 16.7272 11.6035 16.1112 11.6035Z" fill="white"/>
<path d="M58.559 26L54.258 20.043C55.914 19.215 56.926 17.651 56.926 15.719C56.926 12.798 54.626 10.82 51.452 10.82H45.748V26H48.853V20.641H51.13L55.063 26H58.559ZM48.853 13.557H51.452C52.855 13.557 53.752 14.431 53.752 15.719C53.752 17.03 52.901 17.904 51.452 17.904H48.853V13.557ZM59.272 20.296C59.203 23.539 62.009 26.322 65.344 26.253C68.679 26.322 71.554 23.539 71.485 20.296C71.554 17.053 68.702 14.316 65.367 14.362C62.032 14.293 59.203 17.053 59.272 20.296ZM68.311 20.319C68.311 22.09 67.046 23.401 65.367 23.401C63.642 23.401 62.423 22.09 62.423 20.319C62.423 18.502 63.642 17.191 65.367 17.191C67.046 17.191 68.311 18.548 68.311 20.319ZM85.9382 20.319C85.9382 16.892 83.5922 14.362 80.4182 14.362C78.9692 14.362 77.8422 14.822 77.0142 15.719V8.75H73.9092V26H76.7612V24.597C77.5662 25.678 78.8542 26.276 80.4182 26.276C83.5922 26.276 85.9382 23.746 85.9382 20.319ZM82.7872 20.296C82.7872 22.205 81.5222 23.447 79.8432 23.447C78.2792 23.447 76.9682 22.366 76.9682 20.319C76.9682 18.295 78.2562 17.168 79.8432 17.168C81.4992 17.168 82.7872 18.433 82.7872 20.296ZM87.73 20.296C87.661 23.539 90.467 26.322 93.802 26.253C97.137 26.322 100.012 23.539 99.943 20.296C100.012 17.053 97.16 14.316 93.825 14.362C90.49 14.293 87.661 17.053 87.73 20.296ZM96.769 20.319C96.769 22.09 95.504 23.401 93.825 23.401C92.1 23.401 90.881 22.09 90.881 20.319C90.881 18.502 92.1 17.191 93.825 17.191C95.504 17.191 96.769 18.548 96.769 20.319ZM101.723 20.296C101.677 23.585 104.483 26.345 107.818 26.276C110.026 26.276 111.774 25.195 112.763 23.447L110.601 21.791C109.865 22.826 109.037 23.424 107.864 23.424C106.116 23.424 104.874 22.113 104.874 20.296C104.874 18.525 106.116 17.191 107.864 17.191C109.06 17.191 109.888 17.812 110.601 18.847L112.763 17.168C111.774 15.42 110.049 14.362 107.818 14.362C104.437 14.362 101.723 16.961 101.723 20.296ZM114.189 20.296C114.12 23.539 116.926 26.322 120.261 26.253C123.596 26.322 126.471 23.539 126.402 20.296C126.471 17.053 123.619 14.316 120.284 14.362C116.949 14.293 114.12 17.053 114.189 20.296ZM123.228 20.319C123.228 22.09 121.963 23.401 120.284 23.401C118.559 23.401 117.34 22.09 117.34 20.319C117.34 18.502 118.559 17.191 120.284 17.191C121.963 17.191 123.228 18.548 123.228 20.319ZM135.818 14.615C135.519 14.523 135.197 14.477 134.806 14.477C133.541 14.477 132.437 15.029 131.678 15.972V14.615H128.826V26H131.931V20.319C131.931 18.364 133.127 17.352 134.99 17.352H135.818V14.615ZM149.772 20.296C149.772 16.892 147.426 14.362 144.252 14.362C142.688 14.362 141.354 14.96 140.595 16.041V14.615H137.743V30.14H140.848V24.896C141.676 25.793 142.872 26.276 144.252 26.276C147.426 26.276 149.772 23.7 149.772 20.296ZM146.621 20.319C146.621 22.182 145.333 23.447 143.677 23.447C142.09 23.447 140.802 22.32 140.802 20.296C140.802 18.249 142.113 17.168 143.677 17.168C145.356 17.168 146.621 18.41 146.621 20.319Z" fill="white"/>
</svg>
