<svg width="781" height="474" viewBox="0 0 781 474" fill="none" xmlns="http://www.w3.org/2000/svg">
<g filter="url(#filter0_b)">
<circle cx="201" cy="235" r="201" fill="#6641D8" fill-opacity="0.2"/>
</g>
<g filter="url(#filter1_b)">
<circle cx="201" cy="235" r="161" fill="#6641D8" fill-opacity="0.4"/>
</g>
<circle cx="201" cy="235" r="115" fill="#6641D8"/>
<path d="M227.713 334.184C230.899 333.35 232.972 330.001 232.139 326.806L232.08 326.594C231.253 323.369 227.797 321.486 224.625 322.301L224.414 322.36C221.14 323.217 219.098 326.683 220.064 329.946C220.909 333.242 224.45 335.151 227.713 334.184ZM227.261 332.498C224.886 333.16 222.649 331.841 221.967 329.396C221.294 326.986 222.525 324.699 224.901 324.037C227.241 323.384 229.517 324.711 230.185 327.104C230.867 329.548 229.602 331.845 227.261 332.498ZM238.689 333.835L237.021 329.85C237.981 330.326 239.125 330.355 240.238 329.889C242.546 328.924 243.475 326.388 242.454 323.947C241.446 321.54 238.981 320.405 236.673 321.371C235.478 321.871 234.633 322.791 234.39 323.888L233.91 322.742L232.283 323.423L236.945 334.565L238.689 333.835ZM239.288 328.413C238.01 328.948 236.463 328.562 235.712 326.768C234.969 324.992 235.779 323.618 237.058 323.083C238.469 322.493 240.014 323.154 240.667 324.714C241.32 326.275 240.683 327.83 239.288 328.413ZM249.873 325.223C251.056 324.574 251.857 323.601 252.282 322.28L250.87 321.577C250.513 322.573 249.92 323.288 249.115 323.73C247.789 324.457 246.371 324.229 245.473 323.078L251.25 319.911C251.13 319.504 250.987 319.131 250.805 318.8C249.697 316.78 247.327 316.088 245.275 317.213C243.055 318.369 242.223 321.269 243.49 323.468C244.745 325.756 247.505 326.522 249.873 325.223ZM249.009 319.456L244.795 321.767C244.416 320.476 244.893 319.25 245.982 318.653C247.071 318.055 248.344 318.281 249.009 319.456ZM256.575 320.951L253.59 316.603C252.908 315.609 253.126 314.432 254.091 313.77C255.04 313.118 256.147 313.363 256.84 314.372L259.825 318.719L261.383 317.65L258.255 313.094C257.063 311.358 255.245 310.903 253.538 312.075C252.633 312.697 252.11 313.493 251.958 314.448L251.469 313.736L250.015 314.734L255.017 322.02L256.575 320.951ZM263.455 309.77L262.446 308.526L259.008 311.316L260.017 312.56L263.455 309.77ZM270.365 310.379C271.049 309.74 271.455 309.041 271.596 308.269C271.725 307.483 271.494 306.788 270.917 306.169C270.069 305.262 269.039 305.239 267.336 305.868L266.484 306.196C265.607 306.522 265.224 306.56 264.917 306.231C264.536 305.823 264.681 305.293 265.221 304.79C265.786 304.262 266.547 303.995 267.348 304.035L267.299 302.48C266.107 302.337 265.063 302.696 264.129 303.568C262.813 304.796 262.516 306.404 263.597 307.561C264.445 308.469 265.451 308.465 267.038 307.87L267.954 307.532C268.831 307.206 269.255 307.106 269.611 307.487C270.053 307.961 269.839 308.629 269.247 309.181C268.563 309.82 267.69 310.02 266.572 309.956L266.593 311.561C267.872 311.771 269.26 311.411 270.365 310.379ZM276.667 296.908C274.834 295.204 271.772 295.395 270.101 297.354C268.433 299.175 268.507 302.09 270.291 303.763L270.444 303.9C272.227 305.558 275.187 305.433 276.862 303.646L276.999 303.493C278.751 301.606 278.572 298.531 276.667 296.908ZM275.695 302.332C274.666 303.488 272.961 303.562 271.738 302.473C270.514 301.384 270.363 299.659 271.404 298.489C272.421 297.346 274.164 297.283 275.388 298.372C276.584 299.437 276.736 301.162 275.695 302.332ZM283.675 295.198C284.938 293.446 284.676 291.193 282.749 289.803L278.588 286.803L277.482 288.336L281.76 291.42C282.753 292.136 282.901 293.286 282.258 294.176C281.585 295.111 280.447 295.334 279.455 294.618L275.177 291.533L274.082 293.052L278.243 296.052C280.17 297.442 282.38 296.993 283.675 295.198ZM288.181 288.149L284.142 285.715C282.8 284.907 282.611 283.512 283.382 282.232L283.68 281.739L282.246 280.875C282.088 281.032 281.937 281.214 281.797 281.445C281.277 282.308 281.179 283.342 281.533 284.291L280.546 283.696L279.636 285.207L287.206 289.768L288.181 288.149ZM292.597 280.341C293.31 278.907 293.21 277.369 292.418 276.091L290.906 276.828C291.408 277.8 291.458 278.71 291.042 279.548C290.337 280.967 288.68 281.47 287.229 280.749C285.794 280.036 285.195 278.411 285.9 276.993C286.324 276.138 287.08 275.629 288.166 275.466L287.824 273.808C286.335 273.933 285.057 274.765 284.328 276.232C283.166 278.489 284.075 281.393 286.372 282.474C288.677 283.619 291.436 282.679 292.597 280.341ZM296.56 271.132C297.039 269.869 297.016 268.609 296.482 267.329L294.951 267.711C295.326 268.7 295.34 269.629 295.014 270.487C294.478 271.901 293.251 272.649 291.822 272.357L294.158 266.197C293.803 265.966 293.452 265.775 293.098 265.641C290.944 264.824 288.692 265.837 287.862 268.025C286.925 270.345 288.174 273.091 290.566 273.941C293.007 274.866 295.602 273.656 296.56 271.132ZM292.159 267.306L290.454 271.8C289.328 271.064 288.894 269.822 289.335 268.661C289.775 267.499 290.89 266.844 292.159 267.306ZM299.963 259.459L298.196 258.228L299.283 252.994L301.394 252.568L301.811 250.559L288.92 253.231L288.789 253.866L299.549 261.45L299.963 259.459ZM297.54 253.33L296.731 257.225L292.326 254.27L297.54 253.33ZM302.583 245.081C302.792 242.931 301.431 241.117 299.066 240.888L293.96 240.391L293.778 242.273L299.027 242.783C300.245 242.901 300.952 243.82 300.845 244.912C300.734 246.059 299.864 246.825 298.646 246.706L293.396 246.196L293.215 248.059L298.321 248.555C300.686 248.785 302.369 247.285 302.583 245.081ZM303.147 234.916C303.153 234.466 303.088 233.943 302.97 233.348L301.368 233.326C301.415 233.849 301.446 234.228 301.442 234.498C301.427 235.649 301.023 236.238 299.889 236.223L295.732 236.168L295.767 233.54L294.129 233.518L294.094 236.146L291.772 236.115L291.747 238.023L294.069 238.054L294.05 239.494L295.687 239.516L295.707 238.076L300.026 238.133C302.096 238.161 303.12 236.95 303.147 234.916ZM302.774 227.346C302.639 224.775 300.307 222.763 297.816 223C295.316 223.13 293.322 225.46 293.564 228.023C293.71 230.489 295.854 232.465 298.297 232.349L298.502 232.335C301.001 232.205 303.013 229.873 302.774 227.346ZM301.032 227.474C301.146 229.018 300.012 230.293 298.379 230.413C296.745 230.533 295.401 229.44 295.286 227.879C295.174 226.353 296.342 225.058 297.976 224.937C299.574 224.82 300.917 225.912 301.032 227.474ZM301.513 218.691L296.366 219.755C295.167 220.003 294.196 219.395 293.963 218.266C293.733 217.156 294.398 216.283 295.597 216.035L300.744 214.972L300.362 213.121L295.126 214.203C294.016 214.432 293.045 213.824 292.812 212.696C292.582 211.586 293.233 210.734 294.449 210.483L299.597 209.419L299.211 207.55L293.799 208.669C291.736 209.095 290.613 210.596 291.025 212.587C291.276 213.804 292.027 214.77 292.987 215.233C292.246 215.919 291.924 216.941 292.172 218.14C292.387 219.18 292.932 219.95 293.694 220.436L292.883 220.603L293.24 222.331L301.895 220.542L301.513 218.691ZM297.923 202.686C297.534 201.545 296.828 200.758 295.886 200.395L296.824 200.075L296.254 198.406L291.194 200.131C288.945 200.898 288.166 202.685 288.869 204.746C289.363 206.194 290.367 207.241 291.861 207.663L292.563 206.263C291.49 205.85 290.848 205.308 290.529 204.371C290.14 203.229 290.549 202.367 291.708 201.972L292.253 201.786L293.061 204.154C293.705 206.045 295.049 206.918 296.497 206.424C297.945 205.93 298.521 204.441 297.923 202.686ZM296.415 202.782C296.711 203.651 296.506 204.386 295.807 204.625C295.126 204.857 294.605 204.445 294.28 203.491L293.548 201.344L293.701 201.292C294.843 200.903 296.003 201.572 296.415 202.782ZM294.01 192.498C293.83 192.086 293.555 191.636 293.203 191.142L291.734 191.781C291.992 192.238 292.176 192.571 292.284 192.818C292.744 193.874 292.618 194.577 291.578 195.03L287.766 196.691L286.717 194.281L285.215 194.935L286.265 197.345L284.136 198.272L284.898 200.021L287.027 199.094L287.602 200.414L289.104 199.76L288.529 198.44L292.489 196.714C294.387 195.888 294.822 194.363 294.01 192.498ZM282.221 193.489C281.904 192.863 281.162 192.593 280.536 192.91C279.91 193.227 279.672 193.992 279.989 194.619C280.314 195.261 281.072 195.523 281.698 195.206C282.325 194.889 282.546 194.132 282.221 193.489ZM291.516 187.737L283.63 191.728L284.483 193.414L292.369 189.424L291.516 187.737ZM288.238 181.737C286.986 179.567 284.121 178.811 282.021 180.008L281.848 180.112C279.679 181.361 278.958 184.343 280.337 186.517C281.62 188.707 284.549 189.48 286.693 188.12C288.862 186.871 289.598 183.88 288.238 181.737ZM286.744 182.641C287.545 183.965 287.113 185.615 285.711 186.463C284.31 187.311 282.617 186.947 281.806 185.607C281.014 184.298 281.468 182.614 282.869 181.766C284.24 180.937 285.933 181.301 286.744 182.641ZM283.259 174.54L279.052 177.721C278.09 178.448 276.905 178.284 276.2 177.35C275.505 176.431 275.699 175.315 276.675 174.577L280.882 171.396L279.742 169.888L275.334 173.221C273.654 174.491 273.283 176.328 274.532 177.98C275.194 178.856 276.013 179.342 276.975 179.45L276.286 179.971L277.349 181.378L284.399 176.048L283.259 174.54ZM269.372 158.889L268.17 160.105L272.034 163.928L264.882 171.158L266.238 172.5L274.593 164.054L269.372 158.889ZM260.19 165.308C259.659 164.849 258.87 164.881 258.411 165.412C257.952 165.943 258.022 166.742 258.553 167.201C259.098 167.672 259.899 167.626 260.358 167.095C260.817 166.564 260.734 165.779 260.19 165.308ZM266.604 156.458L260.824 163.144L262.254 164.38L268.034 157.694L266.604 156.458ZM260.683 151.712C258.699 150.248 256.021 150.754 254.471 152.854C252.911 154.969 253.202 157.667 255.215 159.153C256.2 159.879 257.332 160.133 258.349 159.877L254.939 164.497L256.46 165.619L264.476 154.757L263.057 153.71L262.33 154.695C262.339 153.56 261.726 152.482 260.683 151.712ZM259.918 153.295C261.033 154.118 261.495 155.644 260.351 157.194C259.197 158.758 257.602 158.767 256.487 157.944C255.271 157.046 255.02 155.385 256.025 154.023C257.029 152.662 258.687 152.386 259.918 153.295ZM253.662 147.131L251.205 151.156C250.389 152.493 248.992 152.673 247.717 151.895L247.225 151.595L246.353 153.023C246.509 153.182 246.69 153.335 246.921 153.475C247.781 154.001 248.815 154.104 249.765 153.757L249.165 154.74L250.67 155.659L255.275 148.115L253.662 147.131ZM247.378 143.418C246.302 142.874 245.248 142.805 244.32 143.203L244.767 142.32L243.193 141.524L240.78 146.294C239.708 148.414 240.4 150.237 242.343 151.22C243.709 151.91 245.157 151.957 246.521 151.215L246.045 149.723C244.988 150.177 244.151 150.238 243.267 149.791C242.191 149.247 241.881 148.344 242.434 147.252L242.694 146.738L244.927 147.867C246.709 148.769 248.281 148.454 248.971 147.088C249.662 145.723 249.032 144.255 247.378 143.418ZM246.367 144.541C247.186 144.955 247.553 145.625 247.22 146.283C246.895 146.926 246.235 146.995 245.335 146.54L243.311 145.517L243.384 145.372C243.929 144.296 245.226 143.964 246.367 144.541ZM239.052 139.721L237.266 144.086C236.673 145.535 235.323 145.936 233.94 145.37L233.407 145.152L232.773 146.702C232.953 146.833 233.156 146.955 233.406 147.057C234.339 147.439 235.375 147.377 236.258 146.882L235.822 147.949L237.455 148.616L240.801 140.436L239.052 139.721ZM234.955 134.519C233.514 134.062 232.342 134.483 231.132 135.856L224.056 143.942L225.978 144.551L230.408 139.214L230.886 146.107L232.824 146.721L232.012 137.608L232.606 136.927C233.317 136.114 233.992 136.007 234.833 136.274C234.97 136.317 235.291 136.438 235.807 136.658L236.291 135.131C235.866 134.864 235.419 134.666 234.955 134.519Z" fill="white"/>
<circle cx="201" cy="235" r="80.5" fill="#774EF5" stroke="#472B9E"/>
<path d="M148.16 221.06C148.088 224.462 150.986 227.252 154.388 227.198C157.754 227.252 160.706 224.462 160.634 221.06C160.706 217.658 157.754 214.868 154.388 214.922C151.004 214.868 148.106 217.658 148.16 221.06ZM158.672 221.042C158.672 223.58 156.836 225.452 154.406 225.452C151.94 225.452 150.14 223.58 150.14 221.042C150.14 218.54 151.94 216.668 154.406 216.668C156.836 216.668 158.672 218.558 158.672 221.042ZM171.979 222.572C171.979 219.962 170.143 217.964 167.641 217.964C166.345 217.964 165.211 218.486 164.563 219.404V218.162H162.799V230.24H164.689V225.92C165.391 226.73 166.435 227.198 167.641 227.198C170.143 227.198 171.979 225.218 171.979 222.572ZM170.035 222.59C170.035 224.282 168.847 225.47 167.335 225.47C165.949 225.47 164.671 224.516 164.671 222.572C164.671 220.646 165.949 219.692 167.335 219.692C168.865 219.692 170.035 220.898 170.035 222.59ZM182.11 223.202C182.2 222.788 182.254 222.392 182.254 222.014C182.254 219.71 180.508 217.964 178.168 217.964C175.666 217.91 173.542 220.052 173.596 222.59C173.596 225.2 175.648 227.198 178.348 227.198C179.698 227.198 180.868 226.73 181.876 225.776L180.976 224.48C180.184 225.182 179.32 225.524 178.402 225.524C176.89 225.524 175.756 224.642 175.522 223.202H182.11ZM175.558 221.726C175.846 220.412 176.854 219.566 178.096 219.566C179.338 219.566 180.346 220.376 180.364 221.726H175.558ZM192.142 221.474C192.142 219.368 190.9 217.964 188.83 217.964C187.732 217.964 186.85 218.324 186.184 219.026V218.162H184.42V227H186.31V221.726C186.31 220.52 187.156 219.674 188.326 219.674C189.478 219.674 190.252 220.502 190.252 221.726V227H192.142V221.474ZM194.287 222.086H198.715V220.484H194.287V222.086ZM200.133 225.488C200.925 226.514 202.185 227.198 203.697 227.198C204.633 227.198 205.407 226.964 206.037 226.496C206.667 226.01 206.973 225.344 206.973 224.498C206.973 223.256 206.235 222.536 204.561 221.834L203.715 221.492C202.851 221.132 202.545 220.898 202.545 220.448C202.545 219.89 203.013 219.602 203.751 219.602C204.525 219.602 205.263 219.926 205.821 220.502L206.847 219.332C206.073 218.414 205.065 217.964 203.787 217.964C201.987 217.964 200.673 218.936 200.673 220.52C200.673 221.762 201.411 222.446 202.977 223.094L203.877 223.472C204.741 223.832 205.119 224.048 205.119 224.57C205.119 225.218 204.507 225.56 203.697 225.56C202.761 225.56 201.987 225.11 201.213 224.3L200.133 225.488ZM208.594 222.572C208.54 225.074 210.718 227.252 213.256 227.198C215.83 227.252 218.008 225.074 217.954 222.572C218.008 220.07 215.83 217.91 213.256 217.964C210.718 217.928 208.54 220.034 208.594 222.572ZM216.01 222.59C216.01 224.192 214.822 225.452 213.256 225.452C211.708 225.452 210.52 224.228 210.52 222.59C210.52 220.952 211.708 219.692 213.274 219.692C214.804 219.692 216.01 220.952 216.01 222.59ZM220.031 223.292C220.031 225.668 221.687 227.198 223.901 227.198C226.061 227.198 227.735 225.668 227.735 223.292V218.162H225.845V223.436C225.845 224.66 224.999 225.452 223.901 225.452C222.749 225.452 221.903 224.66 221.903 223.436V218.162H220.031V223.292ZM235.445 218.162C235.229 218.108 234.995 218.072 234.725 218.072C233.717 218.072 232.781 218.522 232.151 219.314V218.162H230.387V227H232.277V222.284C232.277 220.718 233.375 219.836 234.869 219.836H235.445V218.162ZM236.403 222.572C236.403 225.146 238.473 227.198 241.083 227.198C242.685 227.198 244.017 226.424 244.809 225.146L243.477 224.12C242.829 225.002 242.037 225.452 241.101 225.452C239.517 225.452 238.329 224.192 238.329 222.572C238.329 220.97 239.517 219.71 241.101 219.71C242.055 219.71 242.847 220.16 243.477 221.06L244.809 220.016C244.035 218.738 242.721 217.964 241.083 217.964C238.545 217.928 236.349 220.034 236.403 222.572ZM254.673 223.202C254.763 222.788 254.817 222.392 254.817 222.014C254.817 219.71 253.071 217.964 250.731 217.964C248.229 217.91 246.105 220.052 246.159 222.59C246.159 225.2 248.211 227.198 250.911 227.198C252.261 227.198 253.431 226.73 254.439 225.776L253.539 224.48C252.747 225.182 251.883 225.524 250.965 225.524C249.453 225.524 248.319 224.642 248.085 223.202H254.673ZM248.121 221.726C248.409 220.412 249.417 219.566 250.659 219.566C251.901 219.566 252.909 220.376 252.927 221.726H248.121ZM168.626 250L165.062 245.104C166.484 244.546 167.348 243.322 167.348 241.756C167.348 239.614 165.71 238.12 163.316 238.12H158.978V250H160.886V245.41H163.064L166.448 250H168.626ZM160.886 239.812H163.28C164.594 239.812 165.386 240.604 165.386 241.774C165.386 242.926 164.594 243.718 163.28 243.718H160.886V239.812ZM170.334 250H172.242V245.41H174.672C177.066 245.41 178.704 243.88 178.704 241.756C178.704 239.614 177.066 238.12 174.672 238.12H170.334V250ZM172.242 243.718V239.812H174.636C175.986 239.812 176.742 240.604 176.742 241.774C176.742 242.944 175.986 243.718 174.636 243.718H172.242ZM187.361 250H189.413L184.175 237.922H183.527L178.289 250H180.323L181.169 248.02H186.515L187.361 250ZM185.831 246.382H181.853L183.851 241.468L185.831 246.382ZM205.101 250L201.537 245.104C202.959 244.546 203.823 243.322 203.823 241.756C203.823 239.614 202.185 238.12 199.791 238.12H195.453V250H197.361V245.41H199.539L202.923 250H205.101ZM197.361 239.812H199.755C201.069 239.812 201.861 240.604 201.861 241.774C201.861 242.926 201.069 243.718 199.755 243.718H197.361V239.812ZM205.861 245.572C205.807 248.074 207.985 250.252 210.523 250.198C213.097 250.252 215.275 248.074 215.221 245.572C215.275 243.07 213.097 240.91 210.523 240.964C207.985 240.928 205.807 243.034 205.861 245.572ZM213.277 245.59C213.277 247.192 212.089 248.452 210.523 248.452C208.975 248.452 207.787 247.228 207.787 245.59C207.787 243.952 208.975 242.692 210.541 242.692C212.071 242.692 213.277 243.952 213.277 245.59ZM226.568 245.59C226.568 242.962 224.732 240.964 222.23 240.964C221.006 240.964 219.944 241.432 219.278 242.242V236.5H217.388V250H219.152V248.776C219.818 249.694 220.952 250.198 222.248 250.198C224.714 250.198 226.568 248.2 226.568 245.59ZM224.624 245.572C224.624 247.264 223.454 248.47 221.924 248.47C220.538 248.47 219.26 247.516 219.26 245.59C219.26 243.646 220.538 242.692 221.924 242.692C223.436 242.692 224.624 243.88 224.624 245.572ZM228.185 245.572C228.131 248.074 230.309 250.252 232.847 250.198C235.421 250.252 237.599 248.074 237.545 245.572C237.599 243.07 235.421 240.91 232.847 240.964C230.309 240.928 228.131 243.034 228.185 245.572ZM235.601 245.59C235.601 247.192 234.413 248.452 232.847 248.452C231.299 248.452 230.111 247.228 230.111 245.59C230.111 243.952 231.299 242.692 232.865 242.692C234.395 242.692 235.601 243.952 235.601 245.59ZM244.968 248.398C244.446 248.452 244.068 248.488 243.798 248.488C242.646 248.488 242.052 248.092 242.052 246.958V242.8H244.68V241.162H242.052V238.84H240.144V241.162H238.704V242.8H240.144V247.12C240.144 249.19 241.368 250.198 243.402 250.198C243.852 250.198 244.374 250.126 244.968 250V248.398ZM160.003 262.542C160.003 261.408 160.579 261.012 161.731 261.012C161.947 261.012 162.199 261.03 162.487 261.066V259.464C162.145 259.356 161.749 259.302 161.263 259.302C159.319 259.302 158.113 260.31 158.113 262.38V264.162H156.853V265.8H158.113V273H160.003V265.8H162.091V264.162H160.003V262.542ZM168.648 264.162C168.432 264.108 168.198 264.072 167.928 264.072C166.92 264.072 165.984 264.522 165.354 265.314V264.162H163.59V273H165.48V268.284C165.48 266.718 166.578 265.836 168.072 265.836H168.648V264.162ZM177.184 267.654C177.184 265.278 175.744 263.964 173.566 263.964C172.036 263.964 170.722 264.576 169.84 265.854L170.938 266.97C171.676 266.088 172.396 265.656 173.386 265.656C174.592 265.656 175.276 266.322 175.276 267.546V268.122H172.774C170.776 268.122 169.516 269.112 169.516 270.642C169.516 272.172 170.74 273.198 172.594 273.198C173.8 273.198 174.772 272.784 175.42 272.01V273H177.184V267.654ZM175.276 269.652C175.276 270.858 174.268 271.74 172.99 271.74C172.072 271.74 171.442 271.308 171.442 270.57C171.442 269.85 172 269.49 173.008 269.49H175.276V269.652ZM193.08 267.474C193.08 265.368 191.838 263.964 189.804 263.964C188.562 263.964 187.464 264.504 186.816 265.35C186.294 264.486 185.358 263.964 184.134 263.964C183.072 263.964 182.208 264.342 181.578 264.99V264.162H179.814V273H181.704V267.744C181.704 266.52 182.496 265.692 183.648 265.692C184.782 265.692 185.502 266.52 185.502 267.744V273H187.392V267.654C187.392 266.52 188.184 265.692 189.336 265.692C190.47 265.692 191.172 266.502 191.172 267.744V273H193.08V267.474ZM203.661 269.202C203.751 268.788 203.805 268.392 203.805 268.014C203.805 265.71 202.059 263.964 199.719 263.964C197.217 263.91 195.093 266.052 195.147 268.59C195.147 271.2 197.199 273.198 199.899 273.198C201.249 273.198 202.419 272.73 203.427 271.776L202.527 270.48C201.735 271.182 200.871 271.524 199.953 271.524C198.441 271.524 197.307 270.642 197.073 269.202H203.661ZM197.109 267.726C197.397 266.412 198.405 265.566 199.647 265.566C200.889 265.566 201.897 266.376 201.915 267.726H197.109ZM217.265 264.162L214.979 269.868L212.261 263.964H211.613L208.931 269.94L206.609 264.162H204.593L208.517 273.198H209.165L211.937 267.312L214.709 273.198H215.357L219.281 264.162H217.265ZM220.073 268.572C220.019 271.074 222.197 273.252 224.735 273.198C227.309 273.252 229.487 271.074 229.433 268.572C229.487 266.07 227.309 263.91 224.735 263.964C222.197 263.928 220.019 266.034 220.073 268.572ZM227.489 268.59C227.489 270.192 226.301 271.452 224.735 271.452C223.187 271.452 221.999 270.228 221.999 268.59C221.999 266.952 223.187 265.692 224.753 265.692C226.283 265.692 227.489 266.952 227.489 268.59ZM236.657 264.162C236.441 264.108 236.207 264.072 235.937 264.072C234.929 264.072 233.993 264.522 233.363 265.314V264.162H231.599V273H233.489V268.284C233.489 266.718 234.587 265.836 236.081 265.836H236.657V264.162ZM238.349 273H240.239V259.5H238.349V273ZM242.525 268.05L246.089 264.162H243.749L240.293 268.032L244.127 273H246.395L242.525 268.05Z" fill="white"/>
<g filter="url(#filter2_b)">
<circle cx="505.5" cy="59.5" r="59.5" fill="#5AA982"/>
</g>
<g filter="url(#filter3_b)">
<circle cx="505.5" cy="236.5" r="59.5" fill="#EB777B"/>
</g>
<g filter="url(#filter4_b)">
<circle cx="505.5" cy="414.5" r="59.5" fill="#8F48BE"/>
</g>
<rect x="580" y="16" width="5" height="84" fill="#5AA982"/>
<rect x="580" y="192" width="5" height="84" fill="#EB777B"/>
<rect x="580" y="371" width="5" height="84" fill="#8F48BE"/>
<path d="M474.262 68L470.698 63.104C472.12 62.546 472.984 61.322 472.984 59.756C472.984 57.614 471.346 56.12 468.952 56.12H464.614V68H466.522V63.41H468.7L472.084 68H474.262ZM466.522 57.812H468.916C470.23 57.812 471.022 58.604 471.022 59.774C471.022 60.926 470.23 61.718 468.916 61.718H466.522V57.812ZM475.022 63.572C474.968 66.074 477.146 68.252 479.684 68.198C482.258 68.252 484.436 66.074 484.382 63.572C484.436 61.07 482.258 58.91 479.684 58.964C477.146 58.928 474.968 61.034 475.022 63.572ZM482.438 63.59C482.438 65.192 481.25 66.452 479.684 66.452C478.136 66.452 476.948 65.228 476.948 63.59C476.948 61.952 478.136 60.692 479.702 60.692C481.232 60.692 482.438 61.952 482.438 63.59ZM495.729 63.59C495.729 60.962 493.893 58.964 491.391 58.964C490.167 58.964 489.105 59.432 488.439 60.242V54.5H486.549V68H488.313V66.776C488.979 67.694 490.113 68.198 491.409 68.198C493.875 68.198 495.729 66.2 495.729 63.59ZM493.785 63.572C493.785 65.264 492.615 66.47 491.085 66.47C489.699 66.47 488.421 65.516 488.421 63.59C488.421 61.646 489.699 60.692 491.085 60.692C492.597 60.692 493.785 61.88 493.785 63.572ZM497.346 63.572C497.292 66.074 499.47 68.252 502.008 68.198C504.582 68.252 506.76 66.074 506.706 63.572C506.76 61.07 504.582 58.91 502.008 58.964C499.47 58.928 497.292 61.034 497.346 63.572ZM504.762 63.59C504.762 65.192 503.574 66.452 502.008 66.452C500.46 66.452 499.272 65.228 499.272 63.59C499.272 61.952 500.46 60.692 502.026 60.692C503.556 60.692 504.762 61.952 504.762 63.59ZM514.044 68H515.952V62.564H521.928V68H523.836V56.12H521.928V60.854H515.952V56.12H514.044V68ZM526.537 64.292C526.537 66.668 528.193 68.198 530.407 68.198C532.567 68.198 534.241 66.668 534.241 64.292V59.162H532.351V64.436C532.351 65.66 531.505 66.452 530.407 66.452C529.255 66.452 528.409 65.66 528.409 64.436V59.162H526.537V64.292ZM546.072 63.59C546.072 60.962 544.236 58.964 541.734 58.964C540.51 58.964 539.448 59.432 538.782 60.242V54.5H536.892V68H538.656V66.776C539.322 67.694 540.456 68.198 541.752 68.198C544.218 68.198 546.072 66.2 546.072 63.59ZM544.128 63.572C544.128 65.264 542.958 66.47 541.428 66.47C540.042 66.47 538.764 65.516 538.764 63.59C538.764 61.646 540.042 60.692 541.428 60.692C542.94 60.692 544.128 61.88 544.128 63.572Z" fill="white"/>
<path d="M606.494 27H613.838V25.29H608.402V15.12H606.494V27ZM623.517 23.202C623.607 22.788 623.661 22.392 623.661 22.014C623.661 19.71 621.915 17.964 619.575 17.964C617.073 17.91 614.949 20.052 615.003 22.59C615.003 25.2 617.055 27.198 619.755 27.198C621.105 27.198 622.275 26.73 623.283 25.776L622.383 24.48C621.591 25.182 620.727 25.524 619.809 25.524C618.297 25.524 617.163 24.642 616.929 23.202H623.517ZM616.965 21.726C617.253 20.412 618.261 19.566 619.503 19.566C620.745 19.566 621.753 20.376 621.771 21.726H616.965ZM632.847 21.654C632.847 19.278 631.407 17.964 629.229 17.964C627.699 17.964 626.385 18.576 625.503 19.854L626.601 20.97C627.339 20.088 628.059 19.656 629.049 19.656C630.255 19.656 630.939 20.322 630.939 21.546V22.122H628.437C626.439 22.122 625.179 23.112 625.179 24.642C625.179 26.172 626.403 27.198 628.257 27.198C629.463 27.198 630.435 26.784 631.083 26.01V27H632.847V21.654ZM630.939 23.652C630.939 24.858 629.931 25.74 628.653 25.74C627.735 25.74 627.105 25.308 627.105 24.57C627.105 23.85 627.663 23.49 628.671 23.49H630.939V23.652ZM640.535 18.162C640.319 18.108 640.085 18.072 639.815 18.072C638.807 18.072 637.871 18.522 637.241 19.314V18.162H635.477V27H637.367V22.284C637.367 20.718 638.465 19.836 639.959 19.836H640.535V18.162ZM649.949 21.474C649.949 19.368 648.707 17.964 646.637 17.964C645.539 17.964 644.657 18.324 643.991 19.026V18.162H642.227V27H644.117V21.726C644.117 20.52 644.963 19.674 646.133 19.674C647.285 19.674 648.059 20.502 648.059 21.726V27H649.949V21.474Z" fill="white"/>
<path d="M615.44 199.544C615.44 198.086 614.612 196.97 613.226 196.52C613.874 195.962 614.216 195.206 614.216 194.288C614.216 192.452 612.794 191.12 610.652 191.12H606.494V203H611.588C613.91 203 615.44 201.542 615.44 199.544ZM610.472 192.794C611.642 192.794 612.308 193.388 612.308 194.378C612.308 195.368 611.642 195.998 610.472 195.998H608.366V192.794H610.472ZM613.514 199.49C613.514 200.624 612.74 201.326 611.426 201.326H608.366V197.636H611.426C612.74 197.636 613.514 198.356 613.514 199.49ZM617.405 199.292C617.405 201.668 619.061 203.198 621.275 203.198C623.435 203.198 625.109 201.668 625.109 199.292V194.162H623.219V199.436C623.219 200.66 622.373 201.452 621.275 201.452C620.123 201.452 619.277 200.66 619.277 199.436V194.162H617.405V199.292ZM627.761 203H629.651V194.162H627.761V203ZM627.419 190.868C627.419 191.57 627.995 192.11 628.715 192.11C629.417 192.11 629.993 191.57 629.993 190.868C629.993 190.166 629.417 189.608 628.715 189.608C627.995 189.608 627.419 190.166 627.419 190.868ZM632.384 203H634.274V189.5H632.384V203ZM643.721 189.5V195.242C643.055 194.432 641.993 193.964 640.769 193.964C638.321 193.91 636.395 196.016 636.449 198.59C636.449 201.2 638.285 203.198 640.769 203.198C642.083 203.198 643.217 202.658 643.865 201.74V203H645.629V189.5H643.721ZM643.757 198.59C643.757 200.516 642.479 201.47 641.093 201.47C639.527 201.47 638.375 200.264 638.375 198.572C638.375 196.88 639.581 195.692 641.093 195.692C642.461 195.692 643.757 196.682 643.757 198.59Z" fill="white"/>
<path d="M616.142 383L612.578 378.104C614 377.546 614.864 376.322 614.864 374.756C614.864 372.614 613.226 371.12 610.832 371.12H606.494V383H608.402V378.41H610.58L613.964 383H616.142ZM608.402 372.812H610.796C612.11 372.812 612.902 373.604 612.902 374.774C612.902 375.926 612.11 376.718 610.796 376.718H608.402V372.812ZM617.37 379.292C617.37 381.668 619.026 383.198 621.24 383.198C623.4 383.198 625.074 381.668 625.074 379.292V374.162H623.184V379.436C623.184 380.66 622.338 381.452 621.24 381.452C620.088 381.452 619.242 380.66 619.242 379.436V374.162H617.37V379.292ZM635.447 377.474C635.447 375.368 634.205 373.964 632.135 373.964C631.037 373.964 630.155 374.324 629.489 375.026V374.162H627.725V383H629.615V377.726C629.615 376.52 630.461 375.674 631.631 375.674C632.783 375.674 633.557 376.502 633.557 377.726V383H635.447V377.474Z" fill="white"/>
<path opacity="0.7" d="M606.274 54H611.748V53.02H607.366V44.76H606.274V54ZM619.251 50.92C619.307 50.64 619.335 50.374 619.335 50.108C619.335 48.302 617.991 47.028 616.227 47.028C614.281 47.028 612.741 48.624 612.741 50.598C612.741 52.6 614.323 54.154 616.353 54.154C617.431 54.154 618.369 53.706 619.083 52.964L618.453 52.236C617.837 52.852 617.137 53.16 616.367 53.16C615.023 53.16 613.987 52.264 613.861 50.92H619.251ZM613.903 49.968C614.141 48.792 615.065 48.008 616.199 48.008C617.333 48.008 618.215 48.75 618.229 49.968H613.903ZM626.339 49.8C626.339 48.008 625.289 47.028 623.679 47.028C622.545 47.028 621.523 47.518 620.907 48.526L621.621 49.114C622.181 48.386 622.783 48.022 623.609 48.022C624.631 48.022 625.261 48.624 625.261 49.744V50.332H623.105C621.635 50.332 620.655 51.074 620.655 52.236C620.655 53.412 621.635 54.154 623.035 54.154C624.029 54.154 624.827 53.79 625.331 53.118V54H626.339V49.8ZM625.261 51.382C625.261 52.432 624.295 53.258 623.175 53.258C622.377 53.258 621.761 52.866 621.761 52.18C621.761 51.55 622.279 51.214 623.231 51.214H625.261V51.382ZM632.252 47.182C632.07 47.14 631.902 47.126 631.748 47.126C630.922 47.126 630.124 47.49 629.634 48.148V47.182H628.626V54H629.704V50.136C629.704 48.876 630.698 48.134 631.846 48.134H632.252V47.182ZM639.34 49.716C639.34 48.106 638.388 47.028 636.806 47.028C635.952 47.028 635.21 47.35 634.706 47.91V47.182H633.698V54H634.776V49.842C634.776 48.778 635.518 48.022 636.568 48.022C637.618 48.022 638.262 48.764 638.262 49.842V54H639.34V49.716ZM651.571 50.92C651.627 50.64 651.655 50.374 651.655 50.108C651.655 48.302 650.311 47.028 648.547 47.028C646.601 47.028 645.061 48.624 645.061 50.598C645.061 52.6 646.643 54.154 648.673 54.154C649.751 54.154 650.689 53.706 651.403 52.964L650.773 52.236C650.157 52.852 649.457 53.16 648.687 53.16C647.343 53.16 646.307 52.264 646.181 50.92H651.571ZM646.223 49.968C646.461 48.792 647.385 48.008 648.519 48.008C649.653 48.008 650.535 48.75 650.549 49.968H646.223ZM658.12 47.182L655.866 52.32L653.598 47.182H652.45L655.67 54.154H656.062L659.268 47.182H658.12ZM666.569 50.92C666.625 50.64 666.653 50.374 666.653 50.108C666.653 48.302 665.309 47.028 663.545 47.028C661.599 47.028 660.059 48.624 660.059 50.598C660.059 52.6 661.641 54.154 663.671 54.154C664.749 54.154 665.687 53.706 666.401 52.964L665.771 52.236C665.155 52.852 664.455 53.16 663.685 53.16C662.341 53.16 661.305 52.264 661.179 50.92H666.569ZM661.221 49.968C661.459 48.792 662.383 48.008 663.517 48.008C664.651 48.008 665.533 48.75 665.547 49.968H661.221ZM672.173 47.182C671.991 47.14 671.823 47.126 671.669 47.126C670.843 47.126 670.045 47.49 669.555 48.148V47.182H668.547V54H669.625V50.136C669.625 48.876 670.619 48.134 671.767 48.134H672.173V47.182ZM678.464 47.182L676.21 52.614L673.956 47.182H672.794L675.622 53.79L675.258 54.602C674.908 55.428 674.432 55.694 673.718 55.694C673.522 55.694 673.242 55.666 672.892 55.624V56.534C673.242 56.632 673.592 56.674 673.942 56.674C674.992 56.674 675.734 56.142 676.252 54.952L679.612 47.182H678.464ZM684.891 53.09C684.541 53.146 684.247 53.174 683.981 53.174C683.043 53.174 682.539 52.838 682.539 51.872V48.148H684.667V47.182H682.539V45.32H681.461V47.182H680.313V48.148H681.461V51.942C681.461 53.44 682.343 54.154 683.757 54.154C684.079 54.154 684.457 54.098 684.891 54V53.09ZM692.141 49.716C692.141 48.106 691.189 47.028 689.621 47.028C688.767 47.028 688.039 47.378 687.577 47.952V43.5H686.499V54H687.577V49.856C687.577 48.792 688.319 48.022 689.369 48.022C690.419 48.022 691.063 48.75 691.063 49.856V54H692.141V49.716ZM694.428 54H695.506V47.182H694.428V54ZM694.162 44.578C694.162 45.026 694.526 45.362 694.974 45.362C695.422 45.362 695.772 45.026 695.772 44.578C695.772 44.144 695.408 43.794 694.974 43.794C694.526 43.794 694.162 44.144 694.162 44.578ZM703.516 49.716C703.516 48.106 702.564 47.028 700.982 47.028C700.128 47.028 699.386 47.35 698.882 47.91V47.182H697.874V54H698.952V49.842C698.952 48.778 699.694 48.022 700.744 48.022C701.794 48.022 702.438 48.764 702.438 49.842V54H703.516V49.716ZM711.333 47.182V48.274C710.815 47.49 709.821 47.028 708.743 47.028C706.825 47.028 705.397 48.526 705.397 50.486C705.397 52.46 706.825 53.93 708.743 53.93C709.765 53.93 710.731 53.51 711.277 52.796V53.398C711.277 54.868 710.423 55.68 709.009 55.68C707.987 55.68 707.231 55.274 706.461 54.602L705.831 55.358C706.601 56.128 707.707 56.674 709.037 56.674C711.053 56.674 712.355 55.414 712.355 53.342V47.182H711.333ZM711.291 50.486C711.291 52.138 710.157 52.936 708.911 52.936C707.525 52.936 706.489 51.942 706.489 50.5C706.489 49.072 707.525 48.05 708.911 48.05C710.143 48.05 711.291 48.848 711.291 50.486ZM723.485 47.182L721.231 52.614L718.977 47.182H717.815L720.643 53.79L720.279 54.602C719.929 55.428 719.453 55.694 718.739 55.694C718.543 55.694 718.263 55.666 717.913 55.624V56.534C718.263 56.632 718.613 56.674 718.963 56.674C720.013 56.674 720.755 56.142 721.273 54.952L724.633 47.182H723.485ZM725.425 50.584C725.397 52.502 727.035 54.182 728.981 54.14C730.927 54.182 732.607 52.502 732.565 50.584C732.607 48.638 730.941 47 728.995 47.028C727.049 46.986 725.383 48.638 725.425 50.584ZM731.459 50.598C731.459 52.026 730.367 53.146 728.981 53.146C727.595 53.146 726.531 52.026 726.531 50.598C726.531 49.128 727.595 48.022 728.995 48.022C730.381 48.022 731.459 49.128 731.459 50.598ZM734.376 51.284C734.376 53.006 735.608 54.154 737.204 54.154C738.786 54.154 740.018 53.006 740.018 51.284V47.182H738.94V51.354C738.94 52.432 738.198 53.16 737.204 53.16C736.196 53.16 735.44 52.46 735.44 51.354V47.182H734.376V51.284ZM751.859 49.716C751.859 48.106 750.907 47.028 749.325 47.028C748.471 47.028 747.729 47.35 747.225 47.91V47.182H746.217V54H747.295V49.842C747.295 48.778 748.037 48.022 749.087 48.022C750.137 48.022 750.781 48.764 750.781 49.842V54H751.859V49.716ZM760.167 50.92C760.223 50.64 760.251 50.374 760.251 50.108C760.251 48.302 758.907 47.028 757.143 47.028C755.197 47.028 753.657 48.624 753.657 50.598C753.657 52.6 755.239 54.154 757.269 54.154C758.347 54.154 759.285 53.706 759.999 52.964L759.369 52.236C758.753 52.852 758.053 53.16 757.283 53.16C755.939 53.16 754.903 52.264 754.777 50.92H760.167ZM754.819 49.968C755.057 48.792 755.981 48.008 757.115 48.008C758.249 48.008 759.131 48.75 759.145 49.968H754.819ZM768.165 50.92C768.221 50.64 768.249 50.374 768.249 50.108C768.249 48.302 766.905 47.028 765.141 47.028C763.195 47.028 761.655 48.624 761.655 50.598C761.655 52.6 763.237 54.154 765.267 54.154C766.345 54.154 767.283 53.706 767.997 52.964L767.367 52.236C766.751 52.852 766.051 53.16 765.281 53.16C763.937 53.16 762.901 52.264 762.775 50.92H768.165ZM762.817 49.968C763.055 48.792 763.979 48.008 765.113 48.008C766.247 48.008 767.129 48.75 767.143 49.968H762.817ZM775.547 43.5V48.19C775.001 47.462 774.049 47.028 773.027 47.028C771.109 47.028 769.653 48.596 769.653 50.598C769.653 52.6 771.109 54.154 773.027 54.154C774.091 54.154 775.085 53.692 775.603 52.922V54H776.625V43.5H775.547ZM775.561 50.598C775.561 52.32 774.413 53.16 773.181 53.16C771.795 53.16 770.759 52.054 770.759 50.584C770.759 49.114 771.795 48.022 773.181 48.022C774.413 48.022 775.561 48.862 775.561 50.598ZM609.914 72.09C609.564 72.146 609.27 72.174 609.004 72.174C608.066 72.174 607.562 71.838 607.562 70.872V67.148H609.69V66.182H607.562V64.32H606.484V66.182H605.336V67.148H606.484V70.942C606.484 72.44 607.366 73.154 608.78 73.154C609.102 73.154 609.48 73.098 609.914 73V72.09ZM610.895 69.584C610.867 71.502 612.505 73.182 614.451 73.14C616.397 73.182 618.077 71.502 618.035 69.584C618.077 67.638 616.411 66 614.465 66.028C612.519 65.986 610.853 67.638 610.895 69.584ZM616.929 69.598C616.929 71.026 615.837 72.146 614.451 72.146C613.065 72.146 612.001 71.026 612.001 69.598C612.001 68.128 613.065 67.022 614.465 67.022C615.851 67.022 616.929 68.128 616.929 69.598ZM623.854 73H624.932V62.5H623.854V73ZM626.346 69.178L629.3 66.182H627.886L625.044 69.164L628.18 73H629.566L626.346 69.178ZM636.578 68.716C636.578 67.106 635.626 66.028 634.044 66.028C633.19 66.028 632.448 66.35 631.944 66.91V66.182H630.936V73H632.014V68.842C632.014 67.778 632.756 67.022 633.806 67.022C634.856 67.022 635.5 67.764 635.5 68.842V73H636.578V68.716ZM638.376 69.584C638.348 71.502 639.986 73.182 641.932 73.14C643.878 73.182 645.558 71.502 645.516 69.584C645.558 67.638 643.892 66 641.946 66.028C640 65.986 638.334 67.638 638.376 69.584ZM644.41 69.598C644.41 71.026 643.318 72.146 641.932 72.146C640.546 72.146 639.482 71.026 639.482 69.598C639.482 68.128 640.546 67.022 641.946 67.022C643.332 67.022 644.41 68.128 644.41 69.598ZM656.335 66.182L654.403 71.194L652.107 66.028H651.701L649.433 71.236L647.459 66.182H646.311L649.209 73.154H649.587L651.897 68.002L654.221 73.154H654.613L657.483 66.182H656.335ZM668.079 68.8C668.079 67.008 667.029 66.028 665.419 66.028C664.285 66.028 663.263 66.518 662.647 67.526L663.361 68.114C663.921 67.386 664.523 67.022 665.349 67.022C666.371 67.022 667.001 67.624 667.001 68.744V69.332H664.845C663.375 69.332 662.395 70.074 662.395 71.236C662.395 72.412 663.375 73.154 664.775 73.154C665.769 73.154 666.567 72.79 667.071 72.118V73H668.079V68.8ZM667.001 70.382C667.001 71.432 666.035 72.258 664.915 72.258C664.117 72.258 663.501 71.866 663.501 71.18C663.501 70.55 664.019 70.214 664.971 70.214H667.001V70.382ZM677.324 69.598C677.324 67.596 675.868 66.028 673.95 66.028C672.928 66.028 671.99 66.462 671.444 67.176V62.5H670.366V73H671.374V71.922C671.892 72.692 672.9 73.154 673.964 73.154C675.882 73.154 677.324 71.6 677.324 69.598ZM676.218 69.584C676.218 71.054 675.182 72.16 673.796 72.16C672.578 72.16 671.43 71.32 671.43 69.598C671.43 67.862 672.536 67.022 673.796 67.022C675.182 67.022 676.218 68.114 676.218 69.584ZM678.721 69.584C678.693 71.502 680.331 73.182 682.277 73.14C684.223 73.182 685.903 71.502 685.861 69.584C685.903 67.638 684.237 66 682.291 66.028C680.345 65.986 678.679 67.638 678.721 69.584ZM684.755 69.598C684.755 71.026 683.663 72.146 682.277 72.146C680.891 72.146 679.827 71.026 679.827 69.598C679.827 68.128 680.891 67.022 682.291 67.022C683.677 67.022 684.755 68.128 684.755 69.598ZM687.672 70.284C687.672 72.006 688.904 73.154 690.5 73.154C692.082 73.154 693.314 72.006 693.314 70.284V66.182H692.236V70.354C692.236 71.432 691.494 72.16 690.5 72.16C689.492 72.16 688.736 71.46 688.736 70.354V66.182H687.672V70.284ZM699.314 72.09C698.964 72.146 698.67 72.174 698.404 72.174C697.466 72.174 696.962 71.838 696.962 70.872V67.148H699.09V66.182H696.962V64.32H695.884V66.182H694.736V67.148H695.884V70.942C695.884 72.44 696.766 73.154 698.18 73.154C698.502 73.154 698.88 73.098 699.314 73V72.09ZM711.804 69.598C711.804 67.596 710.348 66.028 708.43 66.028C707.408 66.028 706.47 66.462 705.924 67.176V62.5H704.846V73H705.854V71.922C706.372 72.692 707.38 73.154 708.444 73.154C710.362 73.154 711.804 71.6 711.804 69.598ZM710.698 69.584C710.698 71.054 709.662 72.16 708.276 72.16C707.058 72.16 705.91 71.32 705.91 69.598C705.91 67.862 707.016 67.022 708.276 67.022C709.662 67.022 710.698 68.114 710.698 69.584ZM713.608 70.284C713.608 72.006 714.84 73.154 716.436 73.154C718.018 73.154 719.25 72.006 719.25 70.284V66.182H718.172V70.354C718.172 71.432 717.43 72.16 716.436 72.16C715.428 72.16 714.672 71.46 714.672 70.354V66.182H713.608V70.284ZM721.526 73H722.604V66.182H721.526V73ZM721.26 63.578C721.26 64.026 721.624 64.362 722.072 64.362C722.52 64.362 722.87 64.026 722.87 63.578C722.87 63.144 722.506 62.794 722.072 62.794C721.624 62.794 721.26 63.144 721.26 63.578ZM724.971 73H726.049V62.5H724.971V73ZM733.821 62.5V67.19C733.275 66.462 732.323 66.028 731.301 66.028C729.383 66.028 727.927 67.596 727.927 69.598C727.927 71.6 729.383 73.154 731.301 73.154C732.365 73.154 733.359 72.692 733.877 71.922V73H734.899V62.5H733.821ZM733.835 69.598C733.835 71.32 732.687 72.16 731.455 72.16C730.069 72.16 729.033 71.054 729.033 69.584C729.033 68.114 730.069 67.022 731.455 67.022C732.687 67.022 733.835 67.862 733.835 69.598ZM737.262 73H738.34V66.182H737.262V73ZM736.996 63.578C736.996 64.026 737.36 64.362 737.808 64.362C738.256 64.362 738.606 64.026 738.606 63.578C738.606 63.144 738.242 62.794 737.808 62.794C737.36 62.794 736.996 63.144 736.996 63.578ZM746.35 68.716C746.35 67.106 745.398 66.028 743.816 66.028C742.962 66.028 742.22 66.35 741.716 66.91V66.182H740.708V73H741.786V68.842C741.786 67.778 742.528 67.022 743.578 67.022C744.628 67.022 745.272 67.764 745.272 68.842V73H746.35V68.716ZM754.167 66.182V67.274C753.649 66.49 752.655 66.028 751.577 66.028C749.659 66.028 748.231 67.526 748.231 69.486C748.231 71.46 749.659 72.93 751.577 72.93C752.599 72.93 753.565 72.51 754.111 71.796V72.398C754.111 73.868 753.257 74.68 751.843 74.68C750.821 74.68 750.065 74.274 749.295 73.602L748.665 74.358C749.435 75.128 750.541 75.674 751.871 75.674C753.887 75.674 755.189 74.414 755.189 72.342V66.182H754.167ZM754.125 69.486C754.125 71.138 752.991 71.936 751.745 71.936C750.359 71.936 749.323 70.942 749.323 69.5C749.323 68.072 750.359 67.05 751.745 67.05C752.977 67.05 754.125 67.848 754.125 69.486ZM605.546 90.824C606.148 91.608 607.072 92.154 608.206 92.154C608.878 92.154 609.438 91.986 609.9 91.636C610.362 91.286 610.6 90.782 610.6 90.152C610.6 89.214 610.068 88.682 608.794 88.136L608.164 87.87C607.338 87.52 607.058 87.31 607.058 86.876C607.058 86.33 607.52 86.022 608.192 86.022C608.822 86.022 609.41 86.316 609.872 86.778L610.53 86.106C609.97 85.434 609.2 85.028 608.248 85.028C606.946 85.028 605.952 85.742 605.952 86.932C605.952 87.842 606.512 88.36 607.646 88.822L608.304 89.102C609.144 89.438 609.494 89.648 609.494 90.194C609.494 90.796 608.934 91.16 608.192 91.16C607.422 91.16 606.89 90.782 606.232 90.11L605.546 90.824ZM612.057 88.584C612.029 90.502 613.667 92.182 615.613 92.14C617.559 92.182 619.239 90.502 619.197 88.584C619.239 86.638 617.573 85 615.627 85.028C613.681 84.986 612.015 86.638 612.057 88.584ZM618.091 88.598C618.091 90.026 616.999 91.146 615.613 91.146C614.227 91.146 613.163 90.026 613.163 88.598C613.163 87.128 614.227 86.022 615.627 86.022C617.013 86.022 618.091 87.128 618.091 88.598ZM622.338 83.628C622.338 82.662 622.856 82.326 623.766 82.326C623.948 82.326 624.144 82.34 624.368 82.368V81.458C624.102 81.388 623.808 81.346 623.514 81.346C622.128 81.346 621.26 82.06 621.26 83.558V85.182H620.28V86.148H621.26V92H622.338V86.148H624.046V85.182H622.338V83.628ZM628.699 91.09C628.349 91.146 628.055 91.174 627.789 91.174C626.851 91.174 626.347 90.838 626.347 89.872V86.148H628.475V85.182H626.347V83.32H625.269V85.182H624.121V86.148H625.269V89.942C625.269 91.44 626.151 92.154 627.565 92.154C627.887 92.154 628.265 92.098 628.699 92V91.09ZM639.505 85.182L637.573 90.194L635.277 85.028H634.871L632.603 90.236L630.629 85.182H629.481L632.379 92.154H632.757L635.067 87.002L637.391 92.154H637.783L640.653 85.182H639.505ZM647.052 87.8C647.052 86.008 646.002 85.028 644.392 85.028C643.258 85.028 642.236 85.518 641.62 86.526L642.334 87.114C642.894 86.386 643.496 86.022 644.322 86.022C645.344 86.022 645.974 86.624 645.974 87.744V88.332H643.818C642.348 88.332 641.368 89.074 641.368 90.236C641.368 91.412 642.348 92.154 643.748 92.154C644.742 92.154 645.54 91.79 646.044 91.118V92H647.052V87.8ZM645.974 89.382C645.974 90.432 645.008 91.258 643.888 91.258C643.09 91.258 642.474 90.866 642.474 90.18C642.474 89.55 642.992 89.214 643.944 89.214H645.974V89.382ZM652.964 85.182C652.782 85.14 652.614 85.126 652.46 85.126C651.634 85.126 650.836 85.49 650.346 86.148V85.182H649.338V92H650.416V88.136C650.416 86.876 651.41 86.134 652.558 86.134H652.964V85.182ZM660.294 88.92C660.35 88.64 660.378 88.374 660.378 88.108C660.378 86.302 659.034 85.028 657.27 85.028C655.324 85.028 653.784 86.624 653.784 88.598C653.784 90.6 655.366 92.154 657.396 92.154C658.474 92.154 659.412 91.706 660.126 90.964L659.496 90.236C658.88 90.852 658.18 91.16 657.41 91.16C656.066 91.16 655.03 90.264 654.904 88.92H660.294ZM654.946 87.968C655.184 86.792 656.108 86.008 657.242 86.008C658.376 86.008 659.258 86.75 659.272 87.968H654.946ZM669.822 85.182C669.64 85.14 669.472 85.126 669.318 85.126C668.492 85.126 667.694 85.49 667.204 86.148V85.182H666.196V92H667.274V88.136C667.274 86.876 668.268 86.134 669.416 86.134H669.822V85.182ZM670.641 88.584C670.613 90.502 672.251 92.182 674.197 92.14C676.143 92.182 677.823 90.502 677.781 88.584C677.823 86.638 676.157 85 674.211 85.028C672.265 84.986 670.599 86.638 670.641 88.584ZM676.675 88.598C676.675 90.026 675.583 91.146 674.197 91.146C672.811 91.146 671.747 90.026 671.747 88.598C671.747 87.128 672.811 86.022 674.211 86.022C675.597 86.022 676.675 87.128 676.675 88.598ZM686.634 88.598C686.634 86.596 685.178 85.028 683.26 85.028C682.238 85.028 681.3 85.462 680.754 86.176V81.5H679.676V92H680.684V90.922C681.202 91.692 682.21 92.154 683.274 92.154C685.192 92.154 686.634 90.6 686.634 88.598ZM685.528 88.584C685.528 90.054 684.492 91.16 683.106 91.16C681.888 91.16 680.74 90.32 680.74 88.598C680.74 86.862 681.846 86.022 683.106 86.022C684.492 86.022 685.528 87.114 685.528 88.584ZM688.032 88.584C688.004 90.502 689.642 92.182 691.588 92.14C693.534 92.182 695.214 90.502 695.172 88.584C695.214 86.638 693.548 85 691.602 85.028C689.656 84.986 687.99 86.638 688.032 88.584ZM694.066 88.598C694.066 90.026 692.974 91.146 691.588 91.146C690.202 91.146 689.138 90.026 689.138 88.598C689.138 87.128 690.202 86.022 691.602 86.022C692.988 86.022 694.066 87.128 694.066 88.598ZM700.791 91.09C700.441 91.146 700.147 91.174 699.881 91.174C698.943 91.174 698.439 90.838 698.439 89.872V86.148H700.567V85.182H698.439V83.32H697.361V85.182H696.213V86.148H697.361V89.942C697.361 91.44 698.243 92.154 699.657 92.154C699.979 92.154 700.357 92.098 700.791 92V91.09ZM701.755 90.824C702.357 91.608 703.281 92.154 704.415 92.154C705.087 92.154 705.647 91.986 706.109 91.636C706.571 91.286 706.809 90.782 706.809 90.152C706.809 89.214 706.277 88.682 705.003 88.136L704.373 87.87C703.547 87.52 703.267 87.31 703.267 86.876C703.267 86.33 703.729 86.022 704.401 86.022C705.031 86.022 705.619 86.316 706.081 86.778L706.739 86.106C706.179 85.434 705.409 85.028 704.457 85.028C703.155 85.028 702.161 85.742 702.161 86.932C702.161 87.842 702.721 88.36 703.855 88.822L704.513 89.102C705.353 89.438 705.703 89.648 705.703 90.194C705.703 90.796 705.143 91.16 704.401 91.16C703.631 91.16 703.099 90.782 702.441 90.11L701.755 90.824Z" fill="white"/>
<path opacity="0.7" d="M605.672 225.38C605.616 227.998 607.842 230.21 610.46 230.154C613.05 230.196 615.318 228.026 615.262 225.38C615.318 222.734 613.05 220.564 610.46 220.606C607.842 220.564 605.616 222.734 605.672 225.38ZM614.128 225.366C614.17 227.48 612.504 229.174 610.474 229.146C608.388 229.146 606.806 227.508 606.806 225.366C606.806 223.224 608.388 221.614 610.474 221.614C612.504 221.572 614.17 223.28 614.128 225.366ZM624.086 226.584C624.086 224.582 622.658 223.028 620.712 223.028C619.648 223.028 618.654 223.49 618.136 224.274V223.182H617.128V232.52H618.206V229.02C618.766 229.734 619.704 230.154 620.712 230.154C622.63 230.154 624.086 228.586 624.086 226.584ZM622.98 226.598C622.98 228.068 621.944 229.16 620.558 229.16C619.298 229.16 618.192 228.32 618.192 226.584C618.192 224.862 619.34 224.022 620.558 224.022C621.944 224.022 622.98 225.128 622.98 226.598ZM631.993 226.92C632.049 226.64 632.077 226.374 632.077 226.108C632.077 224.302 630.733 223.028 628.969 223.028C627.023 223.028 625.483 224.624 625.483 226.598C625.483 228.6 627.065 230.154 629.095 230.154C630.173 230.154 631.111 229.706 631.825 228.964L631.195 228.236C630.579 228.852 629.879 229.16 629.109 229.16C627.765 229.16 626.729 228.264 626.603 226.92H631.993ZM626.645 225.968C626.883 224.792 627.807 224.008 628.941 224.008C630.075 224.008 630.957 224.75 630.971 225.968H626.645ZM639.613 225.716C639.613 224.106 638.661 223.028 637.079 223.028C636.225 223.028 635.483 223.35 634.979 223.91V223.182H633.971V230H635.049V225.842C635.049 224.778 635.791 224.022 636.841 224.022C637.891 224.022 638.535 224.764 638.535 225.842V230H639.613V225.716ZM641.453 226.052H644.799V225.142H641.453V226.052ZM646.097 228.824C646.699 229.608 647.623 230.154 648.757 230.154C649.429 230.154 649.989 229.986 650.451 229.636C650.913 229.286 651.151 228.782 651.151 228.152C651.151 227.214 650.619 226.682 649.345 226.136L648.715 225.87C647.889 225.52 647.609 225.31 647.609 224.876C647.609 224.33 648.071 224.022 648.743 224.022C649.373 224.022 649.961 224.316 650.423 224.778L651.081 224.106C650.521 223.434 649.751 223.028 648.799 223.028C647.497 223.028 646.503 223.742 646.503 224.932C646.503 225.842 647.063 226.36 648.197 226.822L648.855 227.102C649.695 227.438 650.045 227.648 650.045 228.194C650.045 228.796 649.485 229.16 648.743 229.16C647.973 229.16 647.441 228.782 646.783 228.11L646.097 228.824ZM652.608 226.584C652.58 228.502 654.218 230.182 656.164 230.14C658.11 230.182 659.79 228.502 659.748 226.584C659.79 224.638 658.124 223 656.178 223.028C654.232 222.986 652.566 224.638 652.608 226.584ZM658.642 226.598C658.642 228.026 657.55 229.146 656.164 229.146C654.778 229.146 653.714 228.026 653.714 226.598C653.714 225.128 654.778 224.022 656.178 224.022C657.564 224.022 658.642 225.128 658.642 226.598ZM661.559 227.284C661.559 229.006 662.791 230.154 664.387 230.154C665.969 230.154 667.201 229.006 667.201 227.284V223.182H666.123V227.354C666.123 228.432 665.381 229.16 664.387 229.16C663.379 229.16 662.623 228.46 662.623 227.354V223.182H661.559V227.284ZM673.103 223.182C672.921 223.14 672.753 223.126 672.599 223.126C671.773 223.126 670.975 223.49 670.485 224.148V223.182H669.477V230H670.555V226.136C670.555 224.876 671.549 224.134 672.697 224.134H673.103V223.182ZM673.923 226.584C673.923 228.558 675.519 230.154 677.493 230.154C678.683 230.154 679.677 229.58 680.293 228.67L679.523 228.068C678.977 228.796 678.305 229.16 677.507 229.16C676.093 229.16 675.029 228.012 675.029 226.584C675.029 225.17 676.093 224.022 677.507 224.022C678.305 224.022 678.991 224.386 679.537 225.128L680.307 224.512C679.691 223.602 678.683 223.028 677.493 223.028C675.547 223 673.881 224.638 673.923 226.584ZM688.007 226.92C688.063 226.64 688.091 226.374 688.091 226.108C688.091 224.302 686.747 223.028 684.983 223.028C683.037 223.028 681.497 224.624 681.497 226.598C681.497 228.6 683.079 230.154 685.109 230.154C686.187 230.154 687.125 229.706 687.839 228.964L687.209 228.236C686.593 228.852 685.893 229.16 685.123 229.16C683.779 229.16 682.743 228.264 682.617 226.92H688.007ZM682.659 225.968C682.897 224.792 683.821 224.008 684.955 224.008C686.089 224.008 686.971 224.75 686.985 225.968H682.659ZM699.313 219.5V224.19C698.767 223.462 697.815 223.028 696.793 223.028C694.875 223.028 693.419 224.596 693.419 226.598C693.419 228.6 694.875 230.154 696.793 230.154C697.857 230.154 698.851 229.692 699.369 228.922V230H700.391V219.5H699.313ZM699.327 226.598C699.327 228.32 698.179 229.16 696.947 229.16C695.561 229.16 694.525 228.054 694.525 226.584C694.525 225.114 695.561 224.022 696.947 224.022C698.179 224.022 699.327 224.862 699.327 226.598ZM708.774 226.92C708.83 226.64 708.858 226.374 708.858 226.108C708.858 224.302 707.514 223.028 705.75 223.028C703.804 223.028 702.264 224.624 702.264 226.598C702.264 228.6 703.846 230.154 705.876 230.154C706.954 230.154 707.892 229.706 708.606 228.964L707.976 228.236C707.36 228.852 706.66 229.16 705.89 229.16C704.546 229.16 703.51 228.264 703.384 226.92H708.774ZM703.426 225.968C703.664 224.792 704.588 224.008 705.722 224.008C706.856 224.008 707.738 224.75 707.752 225.968H703.426ZM715.323 223.182L713.069 228.32L710.801 223.182H709.653L712.873 230.154H713.265L716.471 223.182H715.323ZM723.773 226.92C723.829 226.64 723.857 226.374 723.857 226.108C723.857 224.302 722.513 223.028 720.749 223.028C718.803 223.028 717.263 224.624 717.263 226.598C717.263 228.6 718.845 230.154 720.875 230.154C721.953 230.154 722.891 229.706 723.605 228.964L722.975 228.236C722.359 228.852 721.659 229.16 720.889 229.16C719.545 229.16 718.509 228.264 718.383 226.92H723.773ZM718.425 225.968C718.663 224.792 719.587 224.008 720.721 224.008C721.855 224.008 722.737 224.75 722.751 225.968H718.425ZM725.751 230H726.829V219.5H725.751V230ZM728.706 226.584C728.678 228.502 730.316 230.182 732.262 230.14C734.208 230.182 735.888 228.502 735.846 226.584C735.888 224.638 734.222 223 732.276 223.028C730.33 222.986 728.664 224.638 728.706 226.584ZM734.74 226.598C734.74 228.026 733.648 229.146 732.262 229.146C730.876 229.146 729.812 228.026 729.812 226.598C729.812 225.128 730.876 224.022 732.276 224.022C733.662 224.022 734.74 225.128 734.74 226.598ZM744.699 226.584C744.699 224.582 743.271 223.028 741.325 223.028C740.261 223.028 739.267 223.49 738.749 224.274V223.182H737.741V232.52H738.819V229.02C739.379 229.734 740.317 230.154 741.325 230.154C743.243 230.154 744.699 228.586 744.699 226.584ZM743.593 226.598C743.593 228.068 742.557 229.16 741.171 229.16C739.911 229.16 738.805 228.32 738.805 226.584C738.805 224.862 739.953 224.022 741.171 224.022C742.557 224.022 743.593 225.128 743.593 226.598ZM756.54 225.716C756.54 224.092 755.63 223.028 754.062 223.028C753.054 223.028 752.228 223.49 751.724 224.204C751.332 223.462 750.618 223.028 749.624 223.028C748.784 223.028 748.084 223.336 747.594 223.896V223.182H746.586V230H747.664V225.856C747.664 224.778 748.378 224.022 749.4 224.022C750.394 224.022 751.024 224.75 751.024 225.856V230H752.102V225.758C752.102 224.792 752.83 224.022 753.852 224.022C754.86 224.022 755.462 224.75 755.462 225.856V230H756.54V225.716ZM764.843 226.92C764.899 226.64 764.927 226.374 764.927 226.108C764.927 224.302 763.583 223.028 761.819 223.028C759.873 223.028 758.333 224.624 758.333 226.598C758.333 228.6 759.915 230.154 761.945 230.154C763.023 230.154 763.961 229.706 764.675 228.964L764.045 228.236C763.429 228.852 762.729 229.16 761.959 229.16C760.615 229.16 759.579 228.264 759.453 226.92H764.843ZM759.495 225.968C759.733 224.792 760.657 224.008 761.791 224.008C762.925 224.008 763.807 224.75 763.821 225.968H759.495ZM772.463 225.716C772.463 224.106 771.511 223.028 769.929 223.028C769.075 223.028 768.333 223.35 767.829 223.91V223.182H766.821V230H767.899V225.842C767.899 224.778 768.641 224.022 769.691 224.022C770.741 224.022 771.385 224.764 771.385 225.842V230H772.463V225.716ZM778.475 229.09C778.125 229.146 777.831 229.174 777.565 229.174C776.627 229.174 776.123 228.838 776.123 227.872V224.148H778.251V223.182H776.123V221.32H775.045V223.182H773.897V224.148H775.045V227.942C775.045 229.44 775.927 230.154 777.341 230.154C777.663 230.154 778.041 230.098 778.475 230V229.09ZM609.914 248.09C609.564 248.146 609.27 248.174 609.004 248.174C608.066 248.174 607.562 247.838 607.562 246.872V243.148H609.69V242.182H607.562V240.32H606.484V242.182H605.336V243.148H606.484V246.942C606.484 248.44 607.366 249.154 608.78 249.154C609.102 249.154 609.48 249.098 609.914 249V248.09ZM610.895 245.584C610.867 247.502 612.505 249.182 614.451 249.14C616.397 249.182 618.077 247.502 618.035 245.584C618.077 243.638 616.411 242 614.465 242.028C612.519 241.986 610.853 243.638 610.895 245.584ZM616.929 245.598C616.929 247.026 615.837 248.146 614.451 248.146C613.065 248.146 612.001 247.026 612.001 245.598C612.001 244.128 613.065 243.022 614.465 243.022C615.851 243.022 616.929 244.128 616.929 245.598ZM619.44 245.584C619.412 247.502 621.05 249.182 622.996 249.14C624.942 249.182 626.622 247.502 626.58 245.584C626.622 243.638 624.956 242 623.01 242.028C621.064 241.986 619.398 243.638 619.44 245.584ZM625.474 245.598C625.474 247.026 624.382 248.146 622.996 248.146C621.61 248.146 620.546 247.026 620.546 245.598C620.546 244.128 621.61 243.022 623.01 243.022C624.396 243.022 625.474 244.128 625.474 245.598ZM628.475 249H629.553V238.5H628.475V249ZM631.276 247.824C631.878 248.608 632.802 249.154 633.936 249.154C634.608 249.154 635.168 248.986 635.63 248.636C636.092 248.286 636.33 247.782 636.33 247.152C636.33 246.214 635.798 245.682 634.524 245.136L633.894 244.87C633.068 244.52 632.788 244.31 632.788 243.876C632.788 243.33 633.25 243.022 633.922 243.022C634.552 243.022 635.14 243.316 635.602 243.778L636.26 243.106C635.7 242.434 634.93 242.028 633.978 242.028C632.676 242.028 631.682 242.742 631.682 243.932C631.682 244.842 632.242 245.36 633.376 245.822L634.034 246.102C634.874 246.438 635.224 246.648 635.224 247.194C635.224 247.796 634.664 248.16 633.922 248.16C633.152 248.16 632.62 247.782 631.962 247.11L631.276 247.824ZM643.448 240.628C643.448 239.662 643.966 239.326 644.876 239.326C645.058 239.326 645.254 239.34 645.478 239.368V238.458C645.212 238.388 644.918 238.346 644.624 238.346C643.238 238.346 642.37 239.06 642.37 240.558V242.182H641.39V243.148H642.37V249H643.448V243.148H645.156V242.182H643.448V240.628ZM645.95 245.584C645.922 247.502 647.56 249.182 649.506 249.14C651.452 249.182 653.132 247.502 653.09 245.584C653.132 243.638 651.466 242 649.52 242.028C647.574 241.986 645.908 243.638 645.95 245.584ZM651.984 245.598C651.984 247.026 650.892 248.146 649.506 248.146C648.12 248.146 647.056 247.026 647.056 245.598C647.056 244.128 648.12 243.022 649.52 243.022C650.906 243.022 651.984 244.128 651.984 245.598ZM658.611 242.182C658.429 242.14 658.261 242.126 658.107 242.126C657.281 242.126 656.483 242.49 655.993 243.148V242.182H654.985V249H656.063V245.136C656.063 243.876 657.057 243.134 658.205 243.134H658.611V242.182ZM669.441 242.182V243.274C668.923 242.49 667.929 242.028 666.865 242.028C664.947 242.028 663.491 243.582 663.491 245.584C663.491 247.586 664.947 249.154 666.865 249.154C667.887 249.154 668.839 248.734 669.385 248.006V251.52H670.463V242.182H669.441ZM669.399 245.584C669.399 247.32 668.251 248.16 667.019 248.16C665.633 248.16 664.597 247.068 664.597 245.598C664.597 244.128 665.633 243.022 667.019 243.022C668.251 243.022 669.399 243.862 669.399 245.584ZM672.743 246.284C672.743 248.006 673.975 249.154 675.571 249.154C677.153 249.154 678.385 248.006 678.385 246.284V242.182H677.307V246.354C677.307 247.432 676.565 248.16 675.571 248.16C674.563 248.16 673.807 247.46 673.807 246.354V242.182H672.743V246.284ZM680.661 249H681.739V242.182H680.661V249ZM680.395 239.578C680.395 240.026 680.759 240.362 681.207 240.362C681.655 240.362 682.005 240.026 682.005 239.578C682.005 239.144 681.641 238.794 681.207 238.794C680.759 238.794 680.395 239.144 680.395 239.578ZM683.616 245.584C683.616 247.558 685.212 249.154 687.186 249.154C688.376 249.154 689.37 248.58 689.986 247.67L689.216 247.068C688.67 247.796 687.998 248.16 687.2 248.16C685.786 248.16 684.722 247.012 684.722 245.584C684.722 244.17 685.786 243.022 687.2 243.022C687.998 243.022 688.684 243.386 689.23 244.128L690 243.512C689.384 242.602 688.376 242.028 687.186 242.028C685.24 242 683.574 243.638 683.616 245.584ZM691.817 249H692.895V238.5H691.817V249ZM694.309 245.178L697.263 242.182H695.849L693.007 245.164L696.143 249H697.529L694.309 245.178ZM698.899 249H699.977V238.5H698.899V249ZM707.188 242.182L704.934 247.614L702.68 242.182H701.518L704.346 248.79L703.982 249.602C703.632 250.428 703.156 250.694 702.442 250.694C702.246 250.694 701.966 250.666 701.616 250.624V251.534C701.966 251.632 702.316 251.674 702.666 251.674C703.716 251.674 704.458 251.142 704.976 249.952L708.336 242.182H707.188ZM720.773 245.598C720.773 243.596 719.317 242.028 717.399 242.028C716.377 242.028 715.439 242.462 714.893 243.176V238.5H713.815V249H714.823V247.922C715.341 248.692 716.349 249.154 717.413 249.154C719.331 249.154 720.773 247.6 720.773 245.598ZM719.667 245.584C719.667 247.054 718.631 248.16 717.245 248.16C716.027 248.16 714.879 247.32 714.879 245.598C714.879 243.862 715.985 243.022 717.245 243.022C718.631 243.022 719.667 244.114 719.667 245.584ZM722.577 246.284C722.577 248.006 723.809 249.154 725.405 249.154C726.987 249.154 728.219 248.006 728.219 246.284V242.182H727.141V246.354C727.141 247.432 726.399 248.16 725.405 248.16C724.397 248.16 723.641 247.46 723.641 246.354V242.182H722.577V246.284ZM730.495 249H731.573V242.182H730.495V249ZM730.229 239.578C730.229 240.026 730.593 240.362 731.041 240.362C731.489 240.362 731.839 240.026 731.839 239.578C731.839 239.144 731.475 238.794 731.041 238.794C730.593 238.794 730.229 239.144 730.229 239.578ZM733.94 249H735.018V238.5H733.94V249ZM742.789 238.5V243.19C742.243 242.462 741.291 242.028 740.269 242.028C738.351 242.028 736.895 243.596 736.895 245.598C736.895 247.6 738.351 249.154 740.269 249.154C741.333 249.154 742.327 248.692 742.845 247.922V249H743.867V238.5H742.789ZM742.803 245.598C742.803 247.32 741.655 248.16 740.423 248.16C739.037 248.16 738.001 247.054 738.001 245.584C738.001 244.114 739.037 243.022 740.423 243.022C741.655 243.022 742.803 243.862 742.803 245.598ZM746.231 249H747.309V242.182H746.231V249ZM745.965 239.578C745.965 240.026 746.329 240.362 746.777 240.362C747.225 240.362 747.575 240.026 747.575 239.578C747.575 239.144 747.211 238.794 746.777 238.794C746.329 238.794 745.965 239.144 745.965 239.578ZM755.318 244.716C755.318 243.106 754.366 242.028 752.784 242.028C751.93 242.028 751.188 242.35 750.684 242.91V242.182H749.676V249H750.754V244.842C750.754 243.778 751.496 243.022 752.546 243.022C753.596 243.022 754.24 243.764 754.24 244.842V249H755.318V244.716ZM763.136 242.182V243.274C762.618 242.49 761.624 242.028 760.546 242.028C758.628 242.028 757.2 243.526 757.2 245.486C757.2 247.46 758.628 248.93 760.546 248.93C761.568 248.93 762.534 248.51 763.08 247.796V248.398C763.08 249.868 762.226 250.68 760.812 250.68C759.79 250.68 759.034 250.274 758.264 249.602L757.634 250.358C758.404 251.128 759.51 251.674 760.84 251.674C762.856 251.674 764.158 250.414 764.158 248.342V242.182H763.136ZM763.094 245.486C763.094 247.138 761.96 247.936 760.714 247.936C759.328 247.936 758.292 246.942 758.292 245.5C758.292 244.072 759.328 243.05 760.714 243.05C761.946 243.05 763.094 243.848 763.094 245.486ZM613.148 264.584C613.148 262.582 611.72 261.028 609.774 261.028C608.71 261.028 607.716 261.49 607.198 262.274V261.182H606.19V270.52H607.268V267.02C607.828 267.734 608.766 268.154 609.774 268.154C611.692 268.154 613.148 266.586 613.148 264.584ZM612.042 264.598C612.042 266.068 611.006 267.16 609.62 267.16C608.36 267.16 607.254 266.32 607.254 264.584C607.254 262.862 608.402 262.022 609.62 262.022C611.006 262.022 612.042 263.128 612.042 264.598ZM614.546 264.584C614.518 266.502 616.156 268.182 618.102 268.14C620.048 268.182 621.728 266.502 621.686 264.584C621.728 262.638 620.062 261 618.116 261.028C616.17 260.986 614.504 262.638 614.546 264.584ZM620.58 264.598C620.58 266.026 619.488 267.146 618.102 267.146C616.716 267.146 615.652 266.026 615.652 264.598C615.652 263.128 616.716 262.022 618.116 262.022C619.502 262.022 620.58 263.128 620.58 264.598ZM632.505 261.182L630.573 266.194L628.277 261.028H627.871L625.603 266.236L623.629 261.182H622.481L625.379 268.154H625.757L628.067 263.002L630.391 268.154H630.783L633.653 261.182H632.505ZM640.962 264.92C641.018 264.64 641.046 264.374 641.046 264.108C641.046 262.302 639.702 261.028 637.938 261.028C635.992 261.028 634.452 262.624 634.452 264.598C634.452 266.6 636.034 268.154 638.064 268.154C639.142 268.154 640.08 267.706 640.794 266.964L640.164 266.236C639.548 266.852 638.848 267.16 638.078 267.16C636.734 267.16 635.698 266.264 635.572 264.92H640.962ZM635.614 263.968C635.852 262.792 636.776 262.008 637.91 262.008C639.044 262.008 639.926 262.75 639.94 263.968H635.614ZM646.566 261.182C646.384 261.14 646.216 261.126 646.062 261.126C645.236 261.126 644.438 261.49 643.948 262.148V261.182H642.94V268H644.018V264.136C644.018 262.876 645.012 262.134 646.16 262.134H646.566V261.182ZM649.258 259.628C649.258 258.662 649.776 258.326 650.686 258.326C650.868 258.326 651.064 258.34 651.288 258.368V257.458C651.022 257.388 650.728 257.346 650.434 257.346C649.048 257.346 648.18 258.06 648.18 259.558V261.182H647.2V262.148H648.18V268H649.258V262.148H650.966V261.182H649.258V259.628ZM652.167 265.284C652.167 267.006 653.399 268.154 654.995 268.154C656.577 268.154 657.809 267.006 657.809 265.284V261.182H656.731V265.354C656.731 266.432 655.989 267.16 654.995 267.16C653.987 267.16 653.231 266.46 653.231 265.354V261.182H652.167V265.284ZM660.085 268H661.163V257.5H660.085V268ZM666.81 266.824C667.412 267.608 668.336 268.154 669.47 268.154C670.142 268.154 670.702 267.986 671.164 267.636C671.626 267.286 671.864 266.782 671.864 266.152C671.864 265.214 671.332 264.682 670.058 264.136L669.428 263.87C668.602 263.52 668.322 263.31 668.322 262.876C668.322 262.33 668.784 262.022 669.456 262.022C670.086 262.022 670.674 262.316 671.136 262.778L671.794 262.106C671.234 261.434 670.464 261.028 669.512 261.028C668.21 261.028 667.216 261.742 667.216 262.932C667.216 263.842 667.776 264.36 668.91 264.822L669.568 265.102C670.408 265.438 670.758 265.648 670.758 266.194C670.758 266.796 670.198 267.16 669.456 267.16C668.686 267.16 668.154 266.782 667.496 266.11L666.81 266.824ZM673.321 264.584C673.293 266.502 674.931 268.182 676.877 268.14C678.823 268.182 680.503 266.502 680.461 264.584C680.503 262.638 678.837 261 676.891 261.028C674.945 260.986 673.279 262.638 673.321 264.584ZM679.355 264.598C679.355 266.026 678.263 267.146 676.877 267.146C675.491 267.146 674.427 266.026 674.427 264.598C674.427 263.128 675.491 262.022 676.891 262.022C678.277 262.022 679.355 263.128 679.355 264.598ZM683.602 259.628C683.602 258.662 684.12 258.326 685.03 258.326C685.212 258.326 685.408 258.34 685.632 258.368V257.458C685.366 257.388 685.072 257.346 684.778 257.346C683.392 257.346 682.524 258.06 682.524 259.558V261.182H681.544V262.148H682.524V268H683.602V262.148H685.31V261.182H683.602V259.628ZM689.963 267.09C689.613 267.146 689.319 267.174 689.053 267.174C688.115 267.174 687.611 266.838 687.611 265.872V262.148H689.739V261.182H687.611V259.32H686.533V261.182H685.385V262.148H686.533V265.942C686.533 267.44 687.415 268.154 688.829 268.154C689.151 268.154 689.529 268.098 689.963 268V267.09ZM700.769 261.182L698.837 266.194L696.541 261.028H696.135L693.867 266.236L691.893 261.182H690.745L693.643 268.154H694.021L696.331 263.002L698.655 268.154H699.047L701.917 261.182H700.769ZM708.316 263.8C708.316 262.008 707.266 261.028 705.656 261.028C704.522 261.028 703.5 261.518 702.884 262.526L703.598 263.114C704.158 262.386 704.76 262.022 705.586 262.022C706.608 262.022 707.238 262.624 707.238 263.744V264.332H705.082C703.612 264.332 702.632 265.074 702.632 266.236C702.632 267.412 703.612 268.154 705.012 268.154C706.006 268.154 706.804 267.79 707.308 267.118V268H708.316V263.8ZM707.238 265.382C707.238 266.432 706.272 267.258 705.152 267.258C704.354 267.258 703.738 266.866 703.738 266.18C703.738 265.55 704.256 265.214 705.208 265.214H707.238V265.382ZM714.228 261.182C714.046 261.14 713.878 261.126 713.724 261.126C712.898 261.126 712.1 261.49 711.61 262.148V261.182H710.602V268H711.68V264.136C711.68 262.876 712.674 262.134 713.822 262.134H714.228V261.182ZM721.558 264.92C721.614 264.64 721.642 264.374 721.642 264.108C721.642 262.302 720.298 261.028 718.534 261.028C716.588 261.028 715.048 262.624 715.048 264.598C715.048 266.6 716.63 268.154 718.66 268.154C719.738 268.154 720.676 267.706 721.39 266.964L720.76 266.236C720.144 266.852 719.444 267.16 718.674 267.16C717.33 267.16 716.294 266.264 716.168 264.92H721.558ZM716.21 263.968C716.448 262.792 717.372 262.008 718.506 262.008C719.64 262.008 720.522 262.75 720.536 263.968H716.21ZM731.086 261.182C730.904 261.14 730.736 261.126 730.582 261.126C729.756 261.126 728.958 261.49 728.468 262.148V261.182H727.46V268H728.538V264.136C728.538 262.876 729.532 262.134 730.68 262.134H731.086V261.182ZM731.905 264.584C731.877 266.502 733.515 268.182 735.461 268.14C737.407 268.182 739.087 266.502 739.045 264.584C739.087 262.638 737.421 261 735.475 261.028C733.529 260.986 731.863 262.638 731.905 264.584ZM737.939 264.598C737.939 266.026 736.847 267.146 735.461 267.146C734.075 267.146 733.011 266.026 733.011 264.598C733.011 263.128 734.075 262.022 735.475 262.022C736.861 262.022 737.939 263.128 737.939 264.598ZM747.898 264.598C747.898 262.596 746.442 261.028 744.524 261.028C743.502 261.028 742.564 261.462 742.018 262.176V257.5H740.94V268H741.948V266.922C742.466 267.692 743.474 268.154 744.538 268.154C746.456 268.154 747.898 266.6 747.898 264.598ZM746.792 264.584C746.792 266.054 745.756 267.16 744.37 267.16C743.152 267.16 742.004 266.32 742.004 264.598C742.004 262.862 743.11 262.022 744.37 262.022C745.756 262.022 746.792 263.114 746.792 264.584ZM749.296 264.584C749.268 266.502 750.906 268.182 752.852 268.14C754.798 268.182 756.478 266.502 756.436 264.584C756.478 262.638 754.812 261 752.866 261.028C750.92 260.986 749.254 262.638 749.296 264.584ZM755.33 264.598C755.33 266.026 754.238 267.146 752.852 267.146C751.466 267.146 750.402 266.026 750.402 264.598C750.402 263.128 751.466 262.022 752.866 262.022C754.252 262.022 755.33 263.128 755.33 264.598ZM762.055 267.09C761.705 267.146 761.411 267.174 761.145 267.174C760.207 267.174 759.703 266.838 759.703 265.872V262.148H761.831V261.182H759.703V259.32H758.625V261.182H757.477V262.148H758.625V265.942C758.625 267.44 759.507 268.154 760.921 268.154C761.243 268.154 761.621 268.098 762.055 268V267.09ZM763.019 266.824C763.621 267.608 764.545 268.154 765.679 268.154C766.351 268.154 766.911 267.986 767.373 267.636C767.835 267.286 768.073 266.782 768.073 266.152C768.073 265.214 767.541 264.682 766.267 264.136L765.637 263.87C764.811 263.52 764.531 263.31 764.531 262.876C764.531 262.33 764.993 262.022 765.665 262.022C766.295 262.022 766.883 262.316 767.345 262.778L768.003 262.106C767.443 261.434 766.673 261.028 765.721 261.028C764.419 261.028 763.425 261.742 763.425 262.932C763.425 263.842 763.985 264.36 765.119 264.822L765.777 265.102C766.617 265.438 766.967 265.648 766.967 266.194C766.967 266.796 766.407 267.16 765.665 267.16C764.895 267.16 764.363 266.782 763.705 266.11L763.019 266.824Z" fill="white"/>
<path opacity="0.7" d="M605.672 405.38C605.616 408.026 607.856 410.196 610.474 410.154C612.112 410.154 613.54 409.384 614.31 408.166L613.498 407.522C612.784 408.544 611.762 409.146 610.488 409.146C608.402 409.146 606.806 407.522 606.806 405.38C606.806 403.238 608.402 401.614 610.488 401.614C611.762 401.614 612.784 402.216 613.498 403.238L614.31 402.594C613.526 401.376 612.112 400.606 610.474 400.606C607.856 400.564 605.616 402.734 605.672 405.38ZM622.081 406.92C622.137 406.64 622.165 406.374 622.165 406.108C622.165 404.302 620.821 403.028 619.057 403.028C617.111 403.028 615.571 404.624 615.571 406.598C615.571 408.6 617.153 410.154 619.183 410.154C620.261 410.154 621.199 409.706 621.913 408.964L621.283 408.236C620.667 408.852 619.967 409.16 619.197 409.16C617.853 409.16 616.817 408.264 616.691 406.92H622.081ZM616.733 405.968C616.971 404.792 617.895 404.008 619.029 404.008C620.163 404.008 621.045 404.75 621.059 405.968H616.733ZM629.701 405.716C629.701 404.106 628.749 403.028 627.167 403.028C626.313 403.028 625.571 403.35 625.067 403.91V403.182H624.059V410H625.137V405.842C625.137 404.778 625.879 404.022 626.929 404.022C627.979 404.022 628.623 404.764 628.623 405.842V410H629.701V405.716ZM635.713 409.09C635.363 409.146 635.069 409.174 634.803 409.174C633.865 409.174 633.361 408.838 633.361 407.872V404.148H635.489V403.182H633.361V401.32H632.283V403.182H631.135V404.148H632.283V407.942C632.283 409.44 633.165 410.154 634.579 410.154C634.901 410.154 635.279 410.098 635.713 410V409.09ZM640.947 403.182C640.765 403.14 640.597 403.126 640.443 403.126C639.617 403.126 638.819 403.49 638.329 404.148V403.182H637.321V410H638.399V406.136C638.399 404.876 639.393 404.134 640.541 404.134H640.947V403.182ZM647.366 405.8C647.366 404.008 646.316 403.028 644.706 403.028C643.572 403.028 642.55 403.518 641.934 404.526L642.648 405.114C643.208 404.386 643.81 404.022 644.636 404.022C645.658 404.022 646.288 404.624 646.288 405.744V406.332H644.132C642.662 406.332 641.682 407.074 641.682 408.236C641.682 409.412 642.662 410.154 644.062 410.154C645.056 410.154 645.854 409.79 646.358 409.118V410H647.366V405.8ZM646.288 407.382C646.288 408.432 645.322 409.258 644.202 409.258C643.404 409.258 642.788 408.866 642.788 408.18C642.788 407.55 643.306 407.214 644.258 407.214H646.288V407.382ZM649.653 410H650.731V399.5H649.653V410ZM653.098 410H654.176V399.5H653.098V410ZM661.388 403.182L659.134 408.614L656.88 403.182H655.718L658.546 409.79L658.182 410.602C657.832 411.428 657.356 411.694 656.642 411.694C656.446 411.694 656.166 411.666 655.816 411.624V412.534C656.166 412.632 656.516 412.674 656.866 412.674C657.916 412.674 658.658 412.142 659.176 410.952L662.536 403.182H661.388ZM677.968 405.716C677.968 404.092 677.058 403.028 675.49 403.028C674.482 403.028 673.656 403.49 673.152 404.204C672.76 403.462 672.046 403.028 671.052 403.028C670.212 403.028 669.512 403.336 669.022 403.896V403.182H668.014V410H669.092V405.856C669.092 404.778 669.806 404.022 670.828 404.022C671.822 404.022 672.452 404.75 672.452 405.856V410H673.53V405.758C673.53 404.792 674.258 404.022 675.28 404.022C676.288 404.022 676.89 404.75 676.89 405.856V410H677.968V405.716ZM685.361 405.8C685.361 404.008 684.311 403.028 682.701 403.028C681.567 403.028 680.545 403.518 679.929 404.526L680.643 405.114C681.203 404.386 681.805 404.022 682.631 404.022C683.653 404.022 684.283 404.624 684.283 405.744V406.332H682.127C680.657 406.332 679.677 407.074 679.677 408.236C679.677 409.412 680.657 410.154 682.057 410.154C683.051 410.154 683.849 409.79 684.353 409.118V410H685.361V405.8ZM684.283 407.382C684.283 408.432 683.317 409.258 682.197 409.258C681.399 409.258 680.783 408.866 680.783 408.18C680.783 407.55 681.301 407.214 682.253 407.214H684.283V407.382ZM693.289 405.716C693.289 404.106 692.337 403.028 690.755 403.028C689.901 403.028 689.159 403.35 688.655 403.91V403.182H687.647V410H688.725V405.842C688.725 404.778 689.467 404.022 690.517 404.022C691.567 404.022 692.211 404.764 692.211 405.842V410H693.289V405.716ZM700.687 405.8C700.687 404.008 699.637 403.028 698.027 403.028C696.893 403.028 695.871 403.518 695.255 404.526L695.969 405.114C696.529 404.386 697.131 404.022 697.957 404.022C698.979 404.022 699.609 404.624 699.609 405.744V406.332H697.453C695.983 406.332 695.003 407.074 695.003 408.236C695.003 409.412 695.983 410.154 697.383 410.154C698.377 410.154 699.175 409.79 699.679 409.118V410H700.687V405.8ZM699.609 407.382C699.609 408.432 698.643 409.258 697.523 409.258C696.725 409.258 696.109 408.866 696.109 408.18C696.109 407.55 696.627 407.214 697.579 407.214H699.609V407.382ZM708.503 403.182V404.274C707.985 403.49 706.991 403.028 705.913 403.028C703.995 403.028 702.567 404.526 702.567 406.486C702.567 408.46 703.995 409.93 705.913 409.93C706.935 409.93 707.901 409.51 708.447 408.796V409.398C708.447 410.868 707.593 411.68 706.179 411.68C705.157 411.68 704.401 411.274 703.631 410.602L703.001 411.358C703.771 412.128 704.877 412.674 706.207 412.674C708.223 412.674 709.525 411.414 709.525 409.342V403.182H708.503ZM708.461 406.486C708.461 408.138 707.327 408.936 706.081 408.936C704.695 408.936 703.659 407.942 703.659 406.5C703.659 405.072 704.695 404.05 706.081 404.05C707.313 404.05 708.461 404.848 708.461 406.486ZM717.907 406.92C717.963 406.64 717.991 406.374 717.991 406.108C717.991 404.302 716.647 403.028 714.883 403.028C712.937 403.028 711.397 404.624 711.397 406.598C711.397 408.6 712.979 410.154 715.009 410.154C716.087 410.154 717.025 409.706 717.739 408.964L717.109 408.236C716.493 408.852 715.793 409.16 715.023 409.16C713.679 409.16 712.643 408.264 712.517 406.92H717.907ZM712.559 405.968C712.797 404.792 713.721 404.008 714.855 404.008C715.989 404.008 716.871 404.75 716.885 405.968H712.559ZM728.919 405.8C728.919 404.008 727.869 403.028 726.259 403.028C725.125 403.028 724.103 403.518 723.487 404.526L724.201 405.114C724.761 404.386 725.363 404.022 726.189 404.022C727.211 404.022 727.841 404.624 727.841 405.744V406.332H725.685C724.215 406.332 723.235 407.074 723.235 408.236C723.235 409.412 724.215 410.154 725.615 410.154C726.609 410.154 727.407 409.79 727.911 409.118V410H728.919V405.8ZM727.841 407.382C727.841 408.432 726.875 409.258 725.755 409.258C724.957 409.258 724.341 408.866 724.341 408.18C724.341 407.55 724.859 407.214 725.811 407.214H727.841V407.382ZM736.848 405.716C736.848 404.106 735.896 403.028 734.314 403.028C733.46 403.028 732.718 403.35 732.214 403.91V403.182H731.206V410H732.284V405.842C732.284 404.778 733.026 404.022 734.076 404.022C735.126 404.022 735.77 404.764 735.77 405.842V410H736.848V405.716ZM744.539 399.5V404.19C743.993 403.462 743.041 403.028 742.019 403.028C740.101 403.028 738.645 404.596 738.645 406.598C738.645 408.6 740.101 410.154 742.019 410.154C743.083 410.154 744.077 409.692 744.595 408.922V410H745.617V399.5H744.539ZM744.553 406.598C744.553 408.32 743.405 409.16 742.173 409.16C740.787 409.16 739.751 408.054 739.751 406.584C739.751 405.114 740.787 404.022 742.173 404.022C743.405 404.022 744.553 404.862 744.553 406.598ZM605.7 425.584C605.7 427.558 607.296 429.154 609.27 429.154C610.46 429.154 611.454 428.58 612.07 427.67L611.3 427.068C610.754 427.796 610.082 428.16 609.284 428.16C607.87 428.16 606.806 427.012 606.806 425.584C606.806 424.17 607.87 423.022 609.284 423.022C610.082 423.022 610.768 423.386 611.314 424.128L612.084 423.512C611.468 422.602 610.46 422.028 609.27 422.028C607.324 422 605.658 423.638 605.7 425.584ZM613.274 425.584C613.246 427.502 614.884 429.182 616.83 429.14C618.776 429.182 620.456 427.502 620.414 425.584C620.456 423.638 618.79 422 616.844 422.028C614.898 421.986 613.232 423.638 613.274 425.584ZM619.308 425.598C619.308 427.026 618.216 428.146 616.83 428.146C615.444 428.146 614.38 427.026 614.38 425.598C614.38 424.128 615.444 423.022 616.844 423.022C618.23 423.022 619.308 424.128 619.308 425.598ZM627.951 424.716C627.951 423.106 626.999 422.028 625.417 422.028C624.563 422.028 623.821 422.35 623.317 422.91V422.182H622.309V429H623.387V424.842C623.387 423.778 624.129 423.022 625.179 423.022C626.229 423.022 626.873 423.764 626.873 424.842V429H627.951V424.716ZM633.963 428.09C633.613 428.146 633.319 428.174 633.053 428.174C632.115 428.174 631.611 427.838 631.611 426.872V423.148H633.739V422.182H631.611V420.32H630.533V422.182H629.385V423.148H630.533V426.942C630.533 428.44 631.415 429.154 632.829 429.154C633.151 429.154 633.529 429.098 633.963 429V428.09ZM639.197 422.182C639.015 422.14 638.847 422.126 638.693 422.126C637.867 422.126 637.069 422.49 636.579 423.148V422.182H635.571V429H636.649V425.136C636.649 423.876 637.643 423.134 638.791 423.134H639.197V422.182ZM640.016 425.584C639.988 427.502 641.626 429.182 643.572 429.14C645.518 429.182 647.198 427.502 647.156 425.584C647.198 423.638 645.532 422 643.586 422.028C641.64 421.986 639.974 423.638 640.016 425.584ZM646.05 425.598C646.05 427.026 644.958 428.146 643.572 428.146C642.186 428.146 641.122 427.026 641.122 425.598C641.122 424.128 642.186 423.022 643.586 423.022C644.972 423.022 646.05 424.128 646.05 425.598ZM649.051 429H650.129V418.5H649.051V429ZM661.264 422.182L659.01 427.614L656.756 422.182H655.594L658.422 428.79L658.058 429.602C657.708 430.428 657.232 430.694 656.518 430.694C656.322 430.694 656.042 430.666 655.692 430.624V431.534C656.042 431.632 656.392 431.674 656.742 431.674C657.792 431.674 658.534 431.142 659.052 429.952L662.412 422.182H661.264ZM663.204 425.584C663.176 427.502 664.814 429.182 666.76 429.14C668.706 429.182 670.386 427.502 670.344 425.584C670.386 423.638 668.72 422 666.774 422.028C664.828 421.986 663.162 423.638 663.204 425.584ZM669.238 425.598C669.238 427.026 668.146 428.146 666.76 428.146C665.374 428.146 664.31 427.026 664.31 425.598C664.31 424.128 665.374 423.022 666.774 423.022C668.16 423.022 669.238 424.128 669.238 425.598ZM672.155 426.284C672.155 428.006 673.387 429.154 674.983 429.154C676.565 429.154 677.797 428.006 677.797 426.284V422.182H676.719V426.354C676.719 427.432 675.977 428.16 674.983 428.16C673.975 428.16 673.219 427.46 673.219 426.354V422.182H672.155V426.284ZM683.699 422.182C683.517 422.14 683.349 422.126 683.195 422.126C682.369 422.126 681.571 422.49 681.081 423.148V422.182H680.073V429H681.151V425.136C681.151 423.876 682.145 423.134 683.293 423.134H683.699V422.182ZM688.425 427.824C689.027 428.608 689.951 429.154 691.085 429.154C691.757 429.154 692.317 428.986 692.779 428.636C693.241 428.286 693.479 427.782 693.479 427.152C693.479 426.214 692.947 425.682 691.673 425.136L691.043 424.87C690.217 424.52 689.937 424.31 689.937 423.876C689.937 423.33 690.399 423.022 691.071 423.022C691.701 423.022 692.289 423.316 692.751 423.778L693.409 423.106C692.849 422.434 692.079 422.028 691.127 422.028C689.825 422.028 688.831 422.742 688.831 423.932C688.831 424.842 689.391 425.36 690.525 425.822L691.183 426.102C692.023 426.438 692.373 426.648 692.373 427.194C692.373 427.796 691.813 428.16 691.071 428.16C690.301 428.16 689.769 427.782 689.111 427.11L688.425 427.824ZM694.936 425.584C694.908 427.502 696.546 429.182 698.492 429.14C700.438 429.182 702.118 427.502 702.076 425.584C702.118 423.638 700.452 422 698.506 422.028C696.56 421.986 694.894 423.638 694.936 425.584ZM700.97 425.598C700.97 427.026 699.878 428.146 698.492 428.146C697.106 428.146 696.042 427.026 696.042 425.598C696.042 424.128 697.106 423.022 698.506 423.022C699.892 423.022 700.97 424.128 700.97 425.598ZM705.217 420.628C705.217 419.662 705.735 419.326 706.645 419.326C706.827 419.326 707.023 419.34 707.247 419.368V418.458C706.981 418.388 706.687 418.346 706.393 418.346C705.007 418.346 704.139 419.06 704.139 420.558V422.182H703.159V423.148H704.139V429H705.217V423.148H706.925V422.182H705.217V420.628ZM711.578 428.09C711.228 428.146 710.934 428.174 710.668 428.174C709.73 428.174 709.226 427.838 709.226 426.872V423.148H711.354V422.182H709.226V420.32H708.148V422.182H707V423.148H708.148V426.942C708.148 428.44 709.03 429.154 710.444 429.154C710.766 429.154 711.144 429.098 711.578 429V428.09ZM722.384 422.182L720.452 427.194L718.156 422.028H717.75L715.482 427.236L713.508 422.182H712.36L715.258 429.154H715.636L717.946 424.002L720.27 429.154H720.662L723.532 422.182H722.384ZM729.931 424.8C729.931 423.008 728.881 422.028 727.271 422.028C726.137 422.028 725.115 422.518 724.499 423.526L725.213 424.114C725.773 423.386 726.375 423.022 727.201 423.022C728.223 423.022 728.853 423.624 728.853 424.744V425.332H726.697C725.227 425.332 724.247 426.074 724.247 427.236C724.247 428.412 725.227 429.154 726.627 429.154C727.621 429.154 728.419 428.79 728.923 428.118V429H729.931V424.8ZM728.853 426.382C728.853 427.432 727.887 428.258 726.767 428.258C725.969 428.258 725.353 427.866 725.353 427.18C725.353 426.55 725.871 426.214 726.823 426.214H728.853V426.382ZM735.843 422.182C735.661 422.14 735.493 422.126 735.339 422.126C734.513 422.126 733.715 422.49 733.225 423.148V422.182H732.217V429H733.295V425.136C733.295 423.876 734.289 423.134 735.437 423.134H735.843V422.182ZM743.173 425.92C743.229 425.64 743.257 425.374 743.257 425.108C743.257 423.302 741.913 422.028 740.149 422.028C738.203 422.028 736.663 423.624 736.663 425.598C736.663 427.6 738.245 429.154 740.275 429.154C741.353 429.154 742.291 428.706 743.005 427.964L742.375 427.236C741.759 427.852 741.059 428.16 740.289 428.16C738.945 428.16 737.909 427.264 737.783 425.92H743.173ZM737.825 424.968C738.063 423.792 738.987 423.008 740.121 423.008C741.255 423.008 742.137 423.75 742.151 424.968H737.825ZM750.321 420.628C750.321 419.662 750.839 419.326 751.749 419.326C751.931 419.326 752.127 419.34 752.351 419.368V418.458C752.085 418.388 751.791 418.346 751.497 418.346C750.111 418.346 749.243 419.06 749.243 420.558V422.182H748.263V423.148H749.243V429H750.321V423.148H752.029V422.182H750.321V420.628ZM756.939 422.182C756.757 422.14 756.589 422.126 756.435 422.126C755.609 422.126 754.811 422.49 754.321 423.148V422.182H753.313V429H754.391V425.136C754.391 423.876 755.385 423.134 756.533 423.134H756.939V422.182ZM757.759 425.584C757.731 427.502 759.369 429.182 761.315 429.14C763.261 429.182 764.941 427.502 764.899 425.584C764.941 423.638 763.275 422 761.329 422.028C759.383 421.986 757.717 423.638 757.759 425.584ZM763.793 425.598C763.793 427.026 762.701 428.146 761.315 428.146C759.929 428.146 758.865 427.026 758.865 425.598C758.865 424.128 759.929 423.022 761.329 423.022C762.715 423.022 763.793 424.128 763.793 425.598ZM776.748 424.716C776.748 423.092 775.838 422.028 774.27 422.028C773.262 422.028 772.436 422.49 771.932 423.204C771.54 422.462 770.826 422.028 769.832 422.028C768.992 422.028 768.292 422.336 767.802 422.896V422.182H766.794V429H767.872V424.856C767.872 423.778 768.586 423.022 769.608 423.022C770.602 423.022 771.232 423.75 771.232 424.856V429H772.31V424.758C772.31 423.792 773.038 423.022 774.06 423.022C775.068 423.022 775.67 423.75 775.67 424.856V429H776.748V424.716ZM609.914 447.09C609.564 447.146 609.27 447.174 609.004 447.174C608.066 447.174 607.562 446.838 607.562 445.872V442.148H609.69V441.182H607.562V439.32H606.484V441.182H605.336V442.148H606.484V445.942C606.484 447.44 607.366 448.154 608.78 448.154C609.102 448.154 609.48 448.098 609.914 448V447.09ZM617.164 443.716C617.164 442.106 616.212 441.028 614.644 441.028C613.79 441.028 613.062 441.378 612.6 441.952V437.5H611.522V448H612.6V443.856C612.6 442.792 613.342 442.022 614.392 442.022C615.442 442.022 616.086 442.75 616.086 443.856V448H617.164V443.716ZM625.472 444.92C625.528 444.64 625.556 444.374 625.556 444.108C625.556 442.302 624.212 441.028 622.448 441.028C620.502 441.028 618.962 442.624 618.962 444.598C618.962 446.6 620.544 448.154 622.574 448.154C623.652 448.154 624.59 447.706 625.304 446.964L624.674 446.236C624.058 446.852 623.358 447.16 622.588 447.16C621.244 447.16 620.208 446.264 620.082 444.92H625.472ZM620.124 443.968C620.362 442.792 621.286 442.008 622.42 442.008C623.554 442.008 624.436 442.75 624.45 443.968H620.124ZM630.884 444.584C630.884 446.558 632.48 448.154 634.454 448.154C635.644 448.154 636.638 447.58 637.254 446.67L636.484 446.068C635.938 446.796 635.266 447.16 634.468 447.16C633.054 447.16 631.99 446.012 631.99 444.584C631.99 443.17 633.054 442.022 634.468 442.022C635.266 442.022 635.952 442.386 636.498 443.128L637.268 442.512C636.652 441.602 635.644 441.028 634.454 441.028C632.508 441 630.842 442.638 630.884 444.584ZM639.085 448H640.163V437.5H639.085V448ZM642.04 444.584C642.012 446.502 643.65 448.182 645.596 448.14C647.542 448.182 649.222 446.502 649.18 444.584C649.222 442.638 647.556 441 645.61 441.028C643.664 440.986 641.998 442.638 642.04 444.584ZM648.074 444.598C648.074 446.026 646.982 447.146 645.596 447.146C644.21 447.146 643.146 446.026 643.146 444.598C643.146 443.128 644.21 442.022 645.61 442.022C646.996 442.022 648.074 443.128 648.074 444.598ZM650.991 445.284C650.991 447.006 652.223 448.154 653.819 448.154C655.401 448.154 656.633 447.006 656.633 445.284V441.182H655.555V445.354C655.555 446.432 654.813 447.16 653.819 447.16C652.811 447.16 652.055 446.46 652.055 445.354V441.182H650.991V445.284ZM664.313 437.5V442.19C663.767 441.462 662.815 441.028 661.793 441.028C659.875 441.028 658.419 442.596 658.419 444.598C658.419 446.6 659.875 448.154 661.793 448.154C662.857 448.154 663.851 447.692 664.369 446.922V448H665.391V437.5H664.313ZM664.327 444.598C664.327 446.32 663.179 447.16 661.947 447.16C660.561 447.16 659.525 446.054 659.525 444.584C659.525 443.114 660.561 442.022 661.947 442.022C663.179 442.022 664.327 442.862 664.327 444.598Z" fill="white"/>
<path d="M469.269 245L465.705 240.104C467.127 239.546 467.991 238.322 467.991 236.756C467.991 234.614 466.353 233.12 463.959 233.12H459.621V245H461.529V240.41H463.707L467.091 245H469.269ZM461.529 234.812H463.923C465.237 234.812 466.029 235.604 466.029 236.774C466.029 237.926 465.237 238.718 463.923 238.718H461.529V234.812ZM470.029 240.572C469.975 243.074 472.153 245.252 474.691 245.198C477.265 245.252 479.443 243.074 479.389 240.572C479.443 238.07 477.265 235.91 474.691 235.964C472.153 235.928 469.975 238.034 470.029 240.572ZM477.445 240.59C477.445 242.192 476.257 243.452 474.691 243.452C473.143 243.452 471.955 242.228 471.955 240.59C471.955 238.952 473.143 237.692 474.709 237.692C476.239 237.692 477.445 238.952 477.445 240.59ZM490.736 240.59C490.736 237.962 488.9 235.964 486.398 235.964C485.174 235.964 484.112 236.432 483.446 237.242V231.5H481.556V245H483.32V243.776C483.986 244.694 485.12 245.198 486.416 245.198C488.882 245.198 490.736 243.2 490.736 240.59ZM488.792 240.572C488.792 242.264 487.622 243.47 486.092 243.47C484.706 243.47 483.428 242.516 483.428 240.59C483.428 238.646 484.706 237.692 486.092 237.692C487.604 237.692 488.792 238.88 488.792 240.572ZM492.353 240.572C492.299 243.074 494.477 245.252 497.015 245.198C499.589 245.252 501.767 243.074 501.713 240.572C501.767 238.07 499.589 235.91 497.015 235.964C494.477 235.928 492.299 238.034 492.353 240.572ZM499.769 240.59C499.769 242.192 498.581 243.452 497.015 243.452C495.467 243.452 494.279 242.228 494.279 240.59C494.279 238.952 495.467 237.692 497.033 237.692C498.563 237.692 499.769 238.952 499.769 240.59ZM508.331 239.06C508.259 242.462 511.193 245.252 514.577 245.198C516.791 245.198 518.663 244.136 519.671 242.462L518.231 241.4C517.385 242.714 516.161 243.452 514.595 243.452C512.165 243.452 510.311 241.58 510.311 239.06C510.311 236.54 512.165 234.668 514.595 234.668C516.161 234.668 517.385 235.406 518.231 236.72L519.671 235.658C518.645 233.984 516.755 232.922 514.577 232.922C511.193 232.868 508.259 235.658 508.331 239.06ZM521.093 240.572C521.039 243.074 523.217 245.252 525.755 245.198C528.329 245.252 530.507 243.074 530.453 240.572C530.507 238.07 528.329 235.91 525.755 235.964C523.217 235.928 521.039 238.034 521.093 240.572ZM528.509 240.59C528.509 242.192 527.321 243.452 525.755 243.452C524.207 243.452 523.019 242.228 523.019 240.59C523.019 238.952 524.207 237.692 525.773 237.692C527.303 237.692 528.509 238.952 528.509 240.59ZM539.334 231.5V237.242C538.668 236.432 537.606 235.964 536.382 235.964C533.934 235.91 532.008 238.016 532.062 240.59C532.062 243.2 533.898 245.198 536.382 245.198C537.696 245.198 538.83 244.658 539.478 243.74V245H541.242V231.5H539.334ZM539.37 240.59C539.37 242.516 538.092 243.47 536.706 243.47C535.14 243.47 533.988 242.264 533.988 240.572C533.988 238.88 535.194 237.692 536.706 237.692C538.074 237.692 539.37 238.682 539.37 240.59ZM551.931 241.202C552.021 240.788 552.075 240.392 552.075 240.014C552.075 237.71 550.329 235.964 547.989 235.964C545.487 235.91 543.363 238.052 543.417 240.59C543.417 243.2 545.469 245.198 548.169 245.198C549.519 245.198 550.689 244.73 551.697 243.776L550.797 242.48C550.005 243.182 549.141 243.524 548.223 243.524C546.711 243.524 545.577 242.642 545.343 241.202H551.931ZM545.379 239.726C545.667 238.412 546.675 237.566 547.917 237.566C549.159 237.566 550.167 238.376 550.185 239.726H545.379Z" fill="white"/>
<path d="M466.87 423L463.306 418.104C464.728 417.546 465.592 416.322 465.592 414.756C465.592 412.614 463.954 411.12 461.56 411.12H457.222V423H459.13V418.41H461.308L464.692 423H466.87ZM459.13 412.812H461.524C462.838 412.812 463.63 413.604 463.63 414.774C463.63 415.926 462.838 416.718 461.524 416.718H459.13V412.812ZM467.629 418.572C467.575 421.074 469.753 423.252 472.291 423.198C474.865 423.252 477.043 421.074 476.989 418.572C477.043 416.07 474.865 413.91 472.291 413.964C469.753 413.928 467.575 416.034 467.629 418.572ZM475.045 418.59C475.045 420.192 473.857 421.452 472.291 421.452C470.743 421.452 469.555 420.228 469.555 418.59C469.555 416.952 470.743 415.692 472.309 415.692C473.839 415.692 475.045 416.952 475.045 418.59ZM488.336 418.59C488.336 415.962 486.5 413.964 483.998 413.964C482.774 413.964 481.712 414.432 481.046 415.242V409.5H479.156V423H480.92V421.776C481.586 422.694 482.72 423.198 484.016 423.198C486.482 423.198 488.336 421.2 488.336 418.59ZM486.392 418.572C486.392 420.264 485.222 421.47 483.692 421.47C482.306 421.47 481.028 420.516 481.028 418.59C481.028 416.646 482.306 415.692 483.692 415.692C485.204 415.692 486.392 416.88 486.392 418.572ZM489.954 418.572C489.9 421.074 492.078 423.252 494.616 423.198C497.19 423.252 499.368 421.074 499.314 418.572C499.368 416.07 497.19 413.91 494.616 413.964C492.078 413.928 489.9 416.034 489.954 418.572ZM497.37 418.59C497.37 420.192 496.182 421.452 494.616 421.452C493.068 421.452 491.88 420.228 491.88 418.59C491.88 416.952 493.068 415.692 494.634 415.692C496.164 415.692 497.37 416.952 497.37 418.59ZM505.931 417.06C505.859 420.462 508.793 423.252 512.177 423.198C514.391 423.198 516.263 422.136 517.271 420.462L515.831 419.4C514.985 420.714 513.761 421.452 512.195 421.452C509.765 421.452 507.911 419.58 507.911 417.06C507.911 414.54 509.765 412.668 512.195 412.668C513.761 412.668 514.985 413.406 515.831 414.72L517.271 413.658C516.245 411.984 514.355 410.922 512.177 410.922C508.793 410.868 505.859 413.658 505.931 417.06ZM519.428 423H521.318V409.5H519.428V423ZM523.493 418.572C523.439 421.074 525.617 423.252 528.155 423.198C530.729 423.252 532.907 421.074 532.853 418.572C532.907 416.07 530.729 413.91 528.155 413.964C525.617 413.928 523.439 416.034 523.493 418.572ZM530.909 418.59C530.909 420.192 529.721 421.452 528.155 421.452C526.607 421.452 525.419 420.228 525.419 418.59C525.419 416.952 526.607 415.692 528.173 415.692C529.703 415.692 530.909 416.952 530.909 418.59ZM534.929 419.292C534.929 421.668 536.585 423.198 538.799 423.198C540.959 423.198 542.633 421.668 542.633 419.292V414.162H540.743V419.436C540.743 420.66 539.897 421.452 538.799 421.452C537.647 421.452 536.801 420.66 536.801 419.436V414.162H534.929V419.292ZM551.999 409.5V415.242C551.333 414.432 550.271 413.964 549.047 413.964C546.599 413.91 544.673 416.016 544.727 418.59C544.727 421.2 546.563 423.198 549.047 423.198C550.361 423.198 551.495 422.658 552.143 421.74V423H553.907V409.5H551.999ZM552.035 418.59C552.035 420.516 550.757 421.47 549.371 421.47C547.805 421.47 546.653 420.264 546.653 418.572C546.653 416.88 547.859 415.692 549.371 415.692C550.739 415.692 552.035 416.682 552.035 418.59Z" fill="white"/>
<g filter="url(#filter5_b)">
<path d="M316.299 236.759C316.299 236.759 393 247.315 393 145.718C393 44.1207 446 55.9957 446 55.9957" stroke="#5AA982" stroke-opacity="0.7" stroke-width="15"/>
</g>
<path d="M316 237.007C316 237.007 392.701 247.562 392.701 145.965C392.701 44.3677 445.701 56.2427 445.701 56.2427" stroke="white" stroke-dasharray="4 7"/>
<g filter="url(#filter6_b)">
<path d="M316 238.688C316 238.688 392.701 228.133 392.701 329.73C392.701 431.327 445.701 419.452 445.701 419.452" stroke="#8F48BE" stroke-opacity="0.7" stroke-width="15"/>
</g>
<path d="M316 238.993C316 238.993 392.701 228.438 392.701 330.035C392.701 431.632 445.701 419.757 445.701 419.757" stroke="white" stroke-dasharray="4 7"/>
<g filter="url(#filter7_b)">
<path d="M316.299 237.695L446 235" stroke="#EB777B" stroke-opacity="0.7" stroke-width="15"/>
</g>
<path d="M316 237.695L445.701 235" stroke="white" stroke-dasharray="4 7"/>
<defs>
<filter id="filter0_b" x="-14" y="20" width="430" height="430" filterUnits="userSpaceOnUse" color-interpolation-filters="sRGB">
<feFlood flood-opacity="0" result="BackgroundImageFix"/>
<feGaussianBlur in="BackgroundImage" stdDeviation="7"/>
<feComposite in2="SourceAlpha" operator="in" result="effect1_backgroundBlur"/>
<feBlend mode="normal" in="SourceGraphic" in2="effect1_backgroundBlur" result="shape"/>
</filter>
<filter id="filter1_b" x="26" y="60" width="350" height="350" filterUnits="userSpaceOnUse" color-interpolation-filters="sRGB">
<feFlood flood-opacity="0" result="BackgroundImageFix"/>
<feGaussianBlur in="BackgroundImage" stdDeviation="7"/>
<feComposite in2="SourceAlpha" operator="in" result="effect1_backgroundBlur"/>
<feBlend mode="normal" in="SourceGraphic" in2="effect1_backgroundBlur" result="shape"/>
</filter>
<filter id="filter2_b" x="432" y="-14" width="147" height="147" filterUnits="userSpaceOnUse" color-interpolation-filters="sRGB">
<feFlood flood-opacity="0" result="BackgroundImageFix"/>
<feGaussianBlur in="BackgroundImage" stdDeviation="7"/>
<feComposite in2="SourceAlpha" operator="in" result="effect1_backgroundBlur"/>
<feBlend mode="normal" in="SourceGraphic" in2="effect1_backgroundBlur" result="shape"/>
</filter>
<filter id="filter3_b" x="432" y="163" width="147" height="147" filterUnits="userSpaceOnUse" color-interpolation-filters="sRGB">
<feFlood flood-opacity="0" result="BackgroundImageFix"/>
<feGaussianBlur in="BackgroundImage" stdDeviation="7"/>
<feComposite in2="SourceAlpha" operator="in" result="effect1_backgroundBlur"/>
<feBlend mode="normal" in="SourceGraphic" in2="effect1_backgroundBlur" result="shape"/>
</filter>
<filter id="filter4_b" x="432" y="341" width="147" height="147" filterUnits="userSpaceOnUse" color-interpolation-filters="sRGB">
<feFlood flood-opacity="0" result="BackgroundImageFix"/>
<feGaussianBlur in="BackgroundImage" stdDeviation="7"/>
<feComposite in2="SourceAlpha" operator="in" result="effect1_backgroundBlur"/>
<feBlend mode="normal" in="SourceGraphic" in2="effect1_backgroundBlur" result="shape"/>
</filter>
<filter id="filter5_b" x="311.286" y="44.0693" width="140.341" height="204.503" filterUnits="userSpaceOnUse" color-interpolation-filters="sRGB">
<feFlood flood-opacity="0" result="BackgroundImageFix"/>
<feGaussianBlur in="BackgroundImage" stdDeviation="2"/>
<feComposite in2="SourceAlpha" operator="in" result="effect1_backgroundBlur"/>
<feBlend mode="normal" in="SourceGraphic" in2="effect1_backgroundBlur" result="shape"/>
</filter>
<filter id="filter6_b" x="310.987" y="226.876" width="140.341" height="204.503" filterUnits="userSpaceOnUse" color-interpolation-filters="sRGB">
<feFlood flood-opacity="0" result="BackgroundImageFix"/>
<feGaussianBlur in="BackgroundImage" stdDeviation="2"/>
<feComposite in2="SourceAlpha" operator="in" result="effect1_backgroundBlur"/>
<feBlend mode="normal" in="SourceGraphic" in2="effect1_backgroundBlur" result="shape"/>
</filter>
<filter id="filter7_b" x="312.143" y="223.502" width="138.013" height="25.6916" filterUnits="userSpaceOnUse" color-interpolation-filters="sRGB">
<feFlood flood-opacity="0" result="BackgroundImageFix"/>
<feGaussianBlur in="BackgroundImage" stdDeviation="2"/>
<feComposite in2="SourceAlpha" operator="in" result="effect1_backgroundBlur"/>
<feBlend mode="normal" in="SourceGraphic" in2="effect1_backgroundBlur" result="shape"/>
</filter>
</defs>
</svg>
